<svg xmlns="http://www.w3.org/2000/svg" viewBox="0 0 64 64"><defs><style>.cls-1{fill:#f0efef;opacity:0;}.cls-2{fill:#136990;}.cls-3{fill:#fbb040;}</style></defs><title>icon-for-CCFD_1</title><g id="Layer_2" data-name="Layer 2"><g id="Layer_1-2" data-name="Layer 1"><rect class="cls-1" width="64" height="64"/><path class="cls-2" d="M30,28.63c-.35.11-.71.24-1.09.34a18.16,18.16,0,0,1-4.91.66v2.73a24.63,24.63,0,0,0,8.85-1.57l.16-.06A9,9,0,0,1,30,28.63ZM40,4.53c-8.79,0-16,4.16-16,9.26v2.73c6,0,10.92,2.73,11.28,6.15A25.57,25.57,0,0,0,40,23.1h0a24.57,24.57,0,0,0,8.84-1.57,16.9,16.9,0,0,0,2.46-1.15v5.21c0,2.94-3.34,5.43-7.92,6.28a0,0,0,0,0,0,0,18.87,18.87,0,0,1-3.34.29h0a18.87,18.87,0,0,1-3.34-.29s0,0,0,0c-.45-.09-.9-.19-1.33-.31v2.9c.43.08.88.15,1.33.2,0,0,0,0,0,0a25.55,25.55,0,0,0,3.34.22h0a26,26,0,0,0,3.34-.22,0,0,0,0,0,0,0A22.8,22.8,0,0,0,49,33.27a17.5,17.5,0,0,0,2.34-1.12v8.78c0,3.6-5.1,6.56-11.3,6.56h0a17.58,17.58,0,0,1-4.7-.61v2.91a25.36,25.36,0,0,0,4.7.42h0a22.94,22.94,0,0,0,11.3-2.73c2.6-1.51,4.3-3.53,4.61-5.78H56V13.81C56,8.7,48.8,4.53,40,4.53Zm8.84,13.36a12.64,12.64,0,0,1-3.93,1.82,18.21,18.21,0,0,1-4.91.66,5.78,5.78,0,0,1-.72,0,18.3,18.3,0,0,1-4.19-.63,12,12,0,0,1-3.94-1.84,5.31,5.31,0,0,1-2.42-3.66,2.6,2.6,0,0,1,0-.4c0-3.6,5.07-6.55,11.3-6.55s11.3,3,11.3,6.55A5.17,5.17,0,0,1,48.85,17.89ZM28.71,40.82c-.43.12-.87.22-1.33.31a0,0,0,0,0,0,0,19.19,19.19,0,0,1-3.36.29v.28h.05A6.48,6.48,0,0,0,25,44.13c.81,0,1.59-.1,2.38-.21,0,0,0,0,0,0,.77-.1,1.53-.22,2.27-.39a4.26,4.26,0,0,1-.94-2.6Z"/><path class="cls-3" d="M39.29,20.34c-1.56-2.91-5.53-5.22-10.55-6.13A26.79,26.79,0,0,0,24,13.79c-8.8,0-16,4.17-16,9.28V51h.06c.67,4.76,7.58,8.51,15.94,8.51a22.8,22.8,0,0,0,11.3-2.73c2.61-1.51,4.32-3.53,4.63-5.78H40V23.07A5.94,5.94,0,0,0,39.29,20.34Zm-26.58,9.3a16.65,16.65,0,0,0,2.44,1.15A24.63,24.63,0,0,0,24,32.36a24.63,24.63,0,0,0,8.85-1.57l.16-.06a15.65,15.65,0,0,0,2.29-1.09v5.21c0,2.65-2.71,4.92-6.59,6-.43.12-.87.22-1.33.31a0,0,0,0,0,0,0,19.55,19.55,0,0,1-6.71,0,0,0,0,0,0,0,0c-4.58-.85-7.92-3.34-7.92-6.28ZM35.3,50.19c0,3.6-5.08,6.56-11.3,6.56s-11.29-3-11.29-6.56V41.41A17.08,17.08,0,0,0,15,42.53a22.93,22.93,0,0,0,5.61,1.39s0,0,0,0a26.06,26.06,0,0,0,3.35.22h1c.81,0,1.59-.1,2.38-.21,0,0,0,0,0,0,.77-.1,1.53-.22,2.27-.39a20.43,20.43,0,0,0,3.32-1,17.36,17.36,0,0,0,2.33-1.12Zm0-27.12a5.18,5.18,0,0,1-2.45,4.08A12.5,12.5,0,0,1,30,28.63c-.35.11-.71.24-1.09.34a18.56,18.56,0,0,1-9.81,0,12.28,12.28,0,0,1-3.94-1.83,5.15,5.15,0,0,1-2.45-4.07c0-3.6,5.08-6.55,11.29-6.55,6,0,10.92,2.73,11.28,6.15C35.29,22.81,35.3,22.94,35.3,23.07Z"/><path class="cls-2" d="M47,38.35v-.07a6.58,6.58,0,0,0-.33-2.09v0c-.63-3.07-2.33-8.62-6.7-11.57-4.35,2.94-6.05,8.49-6.69,11.57v0A20,20,0,0,0,33,38.35a7,7,0,1,0,14.07,0Z"/></g></g></svg>