<?xml version="1.0" encoding="iso-8859-1"?>
<!-- Generator: Adobe Illustrator 19.0.0, SVG Export Plug-In . SVG Version: 6.00 Build 0)  -->
<svg version="1.1" id="Capa_1" xmlns="http://www.w3.org/2000/svg" xmlns:xlink="http://www.w3.org/1999/xlink" x="0px" y="0px"
	 viewBox="0 0 512 512" style="enable-background:new 0 0 512 512;" xml:space="preserve">
<path style="fill:#6DC992;" d="M10,10c0,12.21,0,226.325,0,240h492c0-12.21,0-226.325,0-240C346.706,10,165.295,10,10,10z"/>
<path style="fill:#FFBFAB;" d="M272.56,250c2.18-2.18,3.44-3.44,3.44-3.44c0.19-0.19,0.37-0.38,0.55-0.57
	c16.59-17.23,14.68-45.68-5.69-60.35c-16.188-11.67-38.886-8.184-52.94,5.87c-69.694,69.706-56.815,56.825-58.48,58.49H74.76
	c-3.11,7.34-4.76,15.3-4.76,23.43V502h186v-72c35.83-11.94,60-45.48,60-83.25V250H272.56z"/>
<path d="M180,80c-5.52,0-10,4.48-10,10c0,5.02,3.71,9.19,8.54,9.89c0.47,0.07,0.96,0.11,1.46,0.11c5.52,0,10-4.48,10-10
	c0-4.43-2.89-8.2-6.89-9.5C182.13,80.17,181.09,80,180,80z"/>
<path d="M502,0H10C4.477,0,0,4.477,0,10v240c0,5.523,4.477,9.9,10,9.9h51.303c-0.86,4.402-1.303,8.987-1.303,13.53V502
	c0,5.523,4.477,10,10,10h186c5.522,0,10-4.477,10-10v-65.076c36.172-15.11,60-50.479,60-90.174V260h176c5.522,0,10-4.477,10-10V10
	C512,4.477,507.522,0,502,0z M492,58.994C472.438,55.007,456.993,39.563,453.006,20H492V58.994z M432.726,20
	c4.399,30.609,28.666,54.875,59.274,59.274v101.451c-30.608,4.399-54.875,28.666-59.274,59.274H304.16
	C329.657,216.694,346,175.527,346,130c0-34.006-8.918-66.11-25.111-90.4c-5.044-7.566-10.62-14.116-16.61-19.6
	C304.279,20,432.726,20,432.726,20z M189.854,61.535c4.818,2.702,10.913,0.985,13.613-3.833C216.899,33.742,236.047,20,256,20
	c17.918,0,35.053,10.901,48.248,30.694C318.275,71.734,326,99.899,326,130c0,25.213-5.665,49.897-15.951,69.504
	c-3.644,6.945-7.806,13.154-12.356,18.499c-0.008-1.409-0.057-2.822-0.185-4.237c-1.306-14.45-8.888-27.659-20.8-36.238
	c-1.409-1.015-2.861-1.946-4.354-2.791c8.644-5.406,14.146-14.991,14.146-25.446c0-16.542-13.458-30-30-30c-5.514,0-10-4.486-10-10
	c0-4.486,3.041-8.338,7.173-9.573C254.421,99.895,255.197,100,256,100c1.008,0,1.98-0.153,2.898-0.43
	c2.794,0.618,5.669,2.284,8.415,4.943c3.966,3.842,10.298,3.742,14.14-0.226c3.843-3.967,3.742-10.298-0.226-14.141
	c-5.251-5.086-10.505-7.901-15.227-9.384V70c0-5.523-4.478-10-10-10s-10,4.477-10,10v11.219c-11.349,4.304-19.5,15.349-19.5,28.071
	c0,16.542,13.458,30,30,30c5.514,0,10,4.486,10,10c0,4.19-2.643,7.968-6.576,9.401c-5.141,1.871-11.118-0.667-16.406-6.962
	c-3.553-4.229-9.861-4.779-14.089-1.226c-4.229,3.552-4.778,9.859-1.226,14.089c1.928,2.296,3.972,4.328,6.099,6.103
	c-8.707,2.492-16.88,7.171-23.455,13.745l-10.942,10.944C190.892,176.494,186,153.758,186,130v-0.199c0-5.523-4.477-10-10-10
	s-10,4.477-10,10V130c0,29.321,6.735,57.47,19.044,80.248L155.296,240H79.274C74.875,209.391,50.609,185.125,20,180.726V79.274
	C50.609,74.875,74.875,50.509,79.274,19.9h128.49c-8.157,7.436-15.513,16.91-21.743,28.022
	C183.32,52.74,185.036,58.834,189.854,61.535z M58.994,20C55.007,39.563,39.563,55.007,20,58.994V20H58.994z M20,201.006
	c19.563,3.987,35.007,19.431,38.994,38.994H20V201.006z M306,346.75c0,33.524-21.364,63.167-53.161,73.763
	C248.755,421.874,246,425.695,246,430v62H80V273.43c0-4.577,0.63-9.171,1.848-13.53h56.028c-0.538,3.098,0.381,6.499,2.774,8.892
	c3.905,3.905,10.237,3.905,14.142,0c20.311-20.314,44.488-44.495,70.199-70.21c10.703-10.703,27.943-13.536,40.026-4.826
	c15.099,10.873,16.53,31.261,5.357,44.17c-0.871,0.575,8.253-8.227-60.481,60.64c-7.904,7.919-10.699,19.36-7.291,29.871
	C204.856,335.361,206,342.617,206,350c0,20.048-8.659,39.184-23.755,52.5c-4.142,3.654-4.538,9.973-0.884,14.115
	c3.642,4.129,9.961,4.548,14.114,0.884C214.874,400.387,226,375.785,226,350c0-9.49-1.474-18.829-4.377-27.744
	c-1.077-3.32-0.147-6.984,2.426-9.562c14.137-14.165,40.552-40.592,52.654-52.694H306V346.75z M453.006,240
	c3.987-19.563,19.431-35.007,38.994-38.994V240H453.006z"/>
<g>
</g>
<g>
</g>
<g>
</g>
<g>
</g>
<g>
</g>
<g>
</g>
<g>
</g>
<g>
</g>
<g>
</g>
<g>
</g>
<g>
</g>
<g>
</g>
<g>
</g>
<g>
</g>
<g>
</g>
</svg>
