<?xml version="1.0" encoding="utf-8"?>
<!-- Generator: Adobe Illustrator 22.0.0, SVG Export Plug-In . SVG Version: 6.00 Build 0)  -->
<svg version="1.1" id="Capa_1" xmlns="http://www.w3.org/2000/svg" xmlns:xlink="http://www.w3.org/1999/xlink" x="0px" y="0px"
	 viewBox="0 0 512 512" style="enable-background:new 0 0 512 512;" xml:space="preserve">
<style type="text/css">
	.st0{fill:#666666;}
</style>
<g>
	<g>
		<path class="st0" d="M481.6,90.9H30.4C13.4,90.9,0,104.3,0,121.3v269.4c0,16.8,13.6,30.4,30.4,30.4h451.2
			c16.8,0,30.4-13.6,30.4-30.4V121.3C512,104.5,498.4,90.9,481.6,90.9z M475.5,384.6h-439V127.4h439L475.5,384.6L475.5,384.6z"/>
	</g>
</g>
<g>
	<g>
		<rect x="161.1" y="310.4" class="st0" width="189.7" height="36.5"/>
	</g>
</g>
<g>
	<g>
		<rect x="73.6" y="163.9" class="st0" width="71.1" height="36.5"/>
	</g>
</g>
<g>
	<g>
		<rect x="171.5" y="163.9" class="st0" width="71.1" height="36.5"/>
	</g>
</g>
<g>
	<g>
		<rect x="269.4" y="163.9" class="st0" width="71.1" height="36.5"/>
	</g>
</g>
<g>
	<g>
		<rect x="367.3" y="163.9" class="st0" width="71.1" height="36.5"/>
	</g>
</g>
<g>
	<g>
		<rect x="73.6" y="240.5" class="st0" width="71.1" height="36.5"/>
	</g>
</g>
<g>
	<g>
		<rect x="171.5" y="240.5" class="st0" width="71.1" height="36.5"/>
	</g>
</g>
<g>
	<g>
		<rect x="269.4" y="240.5" class="st0" width="71.1" height="36.5"/>
	</g>
</g>
<g>
	<g>
		<rect x="367.3" y="240.5" class="st0" width="71.1" height="36.5"/>
	</g>
</g>
</svg>
