<?xml version="1.0" encoding="utf-8"?>
<!-- Generator: Adobe Illustrator 22.0.0, SVG Export Plug-In . SVG Version: 6.00 Build 0)  -->
<svg version="1.1" id="Layer_1" xmlns="http://www.w3.org/2000/svg" xmlns:xlink="http://www.w3.org/1999/xlink" x="0px" y="0px"
	 viewBox="0 0 400 300" style="enable-background:new 0 0 400 300;" xml:space="preserve">
<style type="text/css">
	.st0{fill:#BFD5DD;}
	.st1{fill:#F99B26;}
</style>
<g>
	<g>
		<path class="st0" d="M241.9,93.3c4.1-8.6,1-19.1,1-19.1l-15.5-15.6l-13.5,3.5l-4.7,15.7c0,0,0,0,0,0c-0.6-0.6-1.2-1.2-1.9-1.8
			C198,68,188,60.6,177.2,56c0,0,0,0,0,0c0,0,0,0,0,0c-2-0.9-3.9-1.6-6-2.3c-0.2-0.1-0.3-0.1-0.4-0.2c-0.1,0-0.2,0-0.2-0.1
			c-1.8-0.6-3.5-1.1-5.3-1.5c-0.1,0-0.2-0.1-0.3-0.1c-0.5-0.1-0.9-0.2-1.4-0.3c-0.4-0.1-0.8-0.2-1.2-0.3c-0.2,0-0.5-0.1-0.7-0.1
			c-2.1-0.3-4.2-0.6-6.3-0.7c0,0,0,0,0,0c-0.4,0-0.7,0-1.1,0c-0.3,0-0.7,0-1,0c0.7-12.7-4.3-22.2-8.9-28.1c-3.1-4-6.4-6.9-8.8-8.7
			c0.7-2.5-0.6-5.2-3.1-6.2c-2.7-1.1-5.7,0.3-6.7,2.9s0.3,5.7,2.9,6.7c1.8,0.7,3.8,0.3,5.3-0.9c2.2,1.7,5.3,4.4,8.1,8.1
			c6.1,7.8,8.8,16.6,8.2,26.2c0,0,0,0,0,0c-0.2,0-0.3,0-0.5,0c-0.2,0-0.3,0-0.5,0c-1.3,0.1-2.6,0.2-3.9,0.3c-0.1,0-0.2,0-0.4,0
			c-0.1,0-0.3,0-0.4,0.1c-1.3,0.2-2.6,0.4-3.9,0.6c-0.2,0-0.3,0-0.5,0.1c-0.1,0-0.2,0-0.3,0c-0.1,0-0.3,0.1-0.4,0.1
			c-1.4,0.3-2.7,0.6-4.1,1c-0.1,0-0.1,0-0.2,0c0,0-0.1,0-0.1,0c-0.5,0.1-0.9,0.3-1.4,0.4c-0.1,0-0.2,0.1-0.3,0.1
			c-0.3,0.1-0.5,0.2-0.8,0.3c-0.3,0.1-0.5,0.2-0.8,0.3c-1.1,0.4-2.3,0.8-3.5,1.3c-0.4,0.1-0.7,0.3-1.1,0.5c-1.3,0.5-2.6,1.1-3.9,1.7
			c-0.2,0.1-0.3,0.1-0.5,0.2c-0.2,0.1-0.5,0.2-0.7,0.4c-3.4,1.7-6.9,3.6-10.4,6c-34.8,22.8-28.7,37.6-16,46.9
			c1.8,1.3,3.8,2.5,5.7,3.7c0,0,0.1,0.1,0.1,0.1c0.1,0.1,0.6,0.3,1.5,0.9c0,0,0,0,0,0c0,0,0,0,0,0c0.3,0.3,0.8,0.5,1.3,0.8
			c8.9,5.1,36.4,20.7,54.7,30.8c0,0,0,0,0.1,0c4.2,2.3,7.9,3.9,11.4,4.9c-0.6,0.7-1.1,1.4-1.7,2.1c-1.3,1.8-2.5,3.6-3.6,5.3
			c-4.4-2.2-7.7-4.3-9.8-5.8l0,0c0,0,0-0.1-0.1,0c-0.7-0.8-1.6-1.5-2.6-2l0,0c-0.3-0.2-0.7-0.4-1.2-0.6c-1.6-0.8-3.9-2.1-6.6-3.7
			l-0.7,1.6l-8.7,18.5c-0.6,1.3-2.1,1.8-3.4,1.2c-1.3-0.6-1.8-2.1-1.2-3.4l8.7-18.7l0.9-1.8c-11.4-6.9-27.6-17.1-39.1-23.5
			c-0.9-0.5-1.8-1-2.6-1.5c-1.2-0.7-2.4-1.3-3.5-1.8c-19.7-10.1-30.8-8.4-41.9,9.3c-11,17.8-18.7,51-17.4,77.6
			c0.1,1.6,0.2,3,0.3,4.4c0,0.4,0.1,0.8,0.1,1.2c0.2,1.2,0.3,2.4,0.5,3.5c0.1,0.6,0.2,1.2,0.3,1.7c0.1,0.5,0.2,0.9,0.3,1.4
			c0.2,0.9,0.4,1.8,0.7,2.6c0.1,0.3,0.2,0.6,0.3,0.9c0.8,2.4,1.8,4.2,3,5.7c0,0,0,0,0,0c0.6,10,2.6,33,8,53.8l-0.2,0.1
			c-1.2,5.5,1.5,9.9,1.5,9.9h21.8c0,0,0.9-6.3-3.6-9.3c-1.1-0.7-2.4-1.2-3.7-1.6c-0.4,1.5-0.7,3.9-0.3,6.6c0.1,0.6-0.3,1.2-0.9,1.2
			H64c-0.5,0-1-0.4-1.1-0.9c-0.5-3.1-0.1-5.7,0.3-7.5c-1-0.2-2.1-0.3-3-0.4c-0.4,1.5-0.9,4.2-0.5,7.6c0.1,0.6-0.3,1.2-0.9,1.2h-0.2
			c-0.5,0-1-0.4-1.1-0.9c-0.3-2.3-0.3-4.3,0-6c0.2-0.8,0.3-1.5,0.5-2.1c-0.3,0-0.5,0-0.7,0c-0.6-5.6-1.7-22.2,1.8-45.8
			c0.2,0,0.4,0,0.6,0c7.8,0.6,18.8,1.4,34,2.4c3.9,0.3,7.7,0.8,11.3,1.1c0,0,0,0,0.1,0c1.9,12.5,5.5,30.6,12,44.8
			c-1,5.3,1.6,9.5,1.6,9.5h21.7c0,0,1-6.3-3.6-9.3c-1.1-0.7-2.4-1.2-3.7-1.6c-0.3,1.5-0.6,3.9-0.2,6.6c0.1,0.6-0.3,1.2-0.9,1.2h-0.1
			c-0.6,0-1-0.4-1.1-0.9c-0.5-3.1-0.2-5.7,0.3-7.5c-1-0.2-2-0.3-2.9-0.4c-0.4,1.5-1,4.2-0.5,7.6c0.1,0.6-0.3,1.2-0.9,1.2h-0.2
			c-0.5,0-1-0.4-1.1-0.9c-0.5-3.4,0-6.3,0.4-8c-0.5,0-0.9,0-1.2,0c0,0,0,0,0,0c-1.4-4.8-4.3-18.2-2-43.9c0,0,0,0,0,0
			c3-1.5,5.5-4.2,7.4-8.4c2.7,0.6,5,1.1,7,1.5c-2.3,6.7,0.7,10.3,3.9,12.3c1.1,0.6,2.3,1.2,3.6,1.7l-8.4,11.3
			c-1.7,2.3-1,5.5,1.4,6.9c0.7,0.4,1.5,0.6,2.4,0.6c1.5,0,2.9-0.7,3.8-1.9l11.4-15.5c1.6-0.2,2.9-0.7,3.6-1.5c0.9-1.1,1.2-2.1,1.2-3
			c1.9,0.3,4.5,0.2,5.9-1.5c1-1.4,1.4-2.8,1.2-4.3c-0.1-0.5-0.3-1-0.5-1.4c2-0.3,4.1-1.2,5.1-3.5c0.4-1.1,0.3-2.2-0.2-3.2
			c-0.3-0.6-0.8-1.1-1.3-1.5l7.2-9.7l-2-1.3c15.6,8.3,37.1,1.6,50.3-17.9c4.2-6.2,7.3-12.8,9.3-19.3c7.2-4.3,13-10.3,16.4-18.4
			C265.3,122.3,249.4,100.9,241.9,93.3z M220.1,69.1l3.5-0.5l8.4,10.8l-2.8,9.8l-7.5-3.2c-1.9-0.8-3.9-0.1-5.1,1.3
			c-1.8-3.1-4.2-6.1-7.1-9c0,0,0,0,0,0C217.7,79.7,220.1,69.1,220.1,69.1z M151.6,134.6c-41.4-25-32.5-43.6-17.3-58
			c18.5-17.6,39.1-16,60.8,3.8c21.8,19.9,19,36.8,13.6,47.7c-0.6,1.1-1.2,2.3-2,3.4c-9.5,0.6-19.9,4.6-29.2,12.9
			C170.3,143.6,161.7,140.6,151.6,134.6z M169.1,224.9c0.2,0.4,0.2,0.7,0,1.1c-0.6,1.5-2.1,1.9-3.4,1.9c-1,0.1-1.9-0.1-1.9-0.1
			c-0.6-0.1-1.2,0.2-1.4,0.7c-0.2,0.6,0,1.2,0.5,1.5c0,0,0.3,0.3,0.7,0.6c0.3,0.4,0.7,0.9,0.8,1.6c0.1,0.7-0.1,1.5-0.7,2.3
			c-0.4,0.6-1.9,0.7-3.3,0.5c-0.6,0-1.3-0.2-1.9-0.3c-0.5-0.1-1,0.1-1.3,0.5c-0.3,0.4-0.3,1,0,1.4c0.1,0.2,0.6,1.2-0.4,2.4
			c-0.7,0.9-5.8,1.2-10.6-0.5c-1.3-0.4-2.6-1-3.8-1.7c-1.4-0.8-5.1-3-2.7-9.7c0.1-0.4,0.3-0.8,0.5-1.2c0.1-0.4,0.3-0.8,0.6-1.2
			c0.2-0.4,0.5-0.9,0.7-1.4c0.9-1.6,2-3.5,3.5-5.3c0.4-0.4,0.8-0.9,1.2-1.3c0.4-0.4,0.8-0.8,1.3-1.2c2.4-1.9,5.7-3.3,10.1-3.3
			c1.8,0,3.8,0.2,6,0.7l-4.5,5.8c-0.3,0.4-0.3,0.9-0.2,1.2c0.1,0.2,0.2,0.4,0.4,0.6c0.1,0.1,0.3,0.2,0.5,0.3
			c2.6,0.4,6.9,1.7,8.6,3.3C168.7,224.4,169,224.6,169.1,224.9z M78.6,191c-11.3-14.4-13.7-29.7-13-41.9c0,0,0,0,0,0
			c0.5-8.3,2.3-15.1,3.7-19.3c0.9-2.6,3.3-4.2,5.9-4.2c0.3,0,0.6,0,1,0.1c0.9,0.1,1.8,0.5,2.5,0.9c0.6,0.5,1.2,1,1.7,1.7
			c1,1.5,1.3,3.2,0.9,4.9c-3.3,14.7-5.6,42.3,15.7,62.3c13.9,13.1,26.8,18.7,36,21.1c3.6,0.9,6.6,1.3,9,1.5c-1.1,1.5-1.9,3-2.7,4.2
			c-0.5,0.8-0.9,1.5-1.2,2.3c-2-0.3-4.4-0.8-7.1-1.5C117,219.7,94.5,211.4,78.6,191z M169.2,207.4l-2.8,3.8c0,0-0.1,0-0.2-0.1
			c-11.6-3.3-18.2,0.1-22.3,4.4c-2.3,0-5.8-0.4-10.2-1.5c5.5-17.5,15.6-33.7,19.9-41.8c1.6,0.9,3.3,1.8,5.1,2.6
			c-3.1,13.9,1.8,25.8,11.5,33.3L169.2,207.4z M226.3,178.1c-1.5,3.7-3.4,7.4-5.8,11c-10.7,15.8-30.2,21.7-40.3,16.3
			c-6.9-3.7-10.9-13.3-8-25.9c1.1-4.6,3.1-9.6,6.3-14.8c0.7-1.2,1.5-2.4,2.3-3.6c2.6-3.8,5.4-6.9,8.4-9.4c4.2-3.6,8.5-6,12.7-7.4
			c9.6-3.3,18.5-1.6,23.1,2.4c3.6,3.2,5.2,8.8,4.9,15.6C229.8,167.2,228.6,172.7,226.3,178.1L226.3,178.1z M237.3,157.3
			c-0.2-7.8-2.6-14.5-7.5-19c-3.8-3.5-9.1-5.8-15.2-6.6c6.4-9.7,10.1-23.3,5.7-36.6v0c6.4,5.2,14.6,5.3,15.5,5.3
			c3,2.8,7.1,8.5,10.1,19.9C249,132.8,248,147.5,237.3,157.3z"/>
		<path class="st0" d="M155.8,101c-1.8,1.8-1.8,4.6,0,6.4c1.7,1.8,4.6,1.8,6.3,0c1.8-1.8,1.8-4.6,0.1-6.4
			C160.5,99.3,157.6,99.2,155.8,101z"/>
		<path class="st0" d="M187.8,126.5c1.8-1.8,1.8-4.6,0-6.4c-1.8-1.8-4.6-1.8-6.4-0.1c-1.8,1.8-1.8,4.6,0,6.4
			C183.2,128.2,186,128.2,187.8,126.5z"/>
	</g>
	<g>
		<path class="st1" d="M278.2,239.5c-1.4,0-2.4,0.7-3,2.2c-0.6,1.5-0.9,4-0.9,7.4c0,3.4,0.3,5.9,0.9,7.4c0.6,1.5,1.6,2.2,3,2.2
			c1.4,0,2.4-0.8,3-2.3c0.6-1.5,0.9-3.9,0.9-7.3c0-3.4-0.3-5.9-0.9-7.4C280.6,240.2,279.6,239.5,278.2,239.5z"/>
		<path class="st1" d="M300.4,244.9l-5.1,7.7h6.7v-4.7c0-0.8,0-1.9,0.1-3.4c0.1-1.5,0.1-2.4,0.2-2.6h-0.2
			C301.6,242.9,301.1,244,300.4,244.9z"/>
		<path class="st1" d="M255.7,244.9l-5.1,7.7h6.7v-4.7c0-0.8,0-1.9,0.1-3.4c0.1-1.5,0.1-2.4,0.2-2.6h-0.2
			C257,242.9,256.4,244,255.7,244.9z"/>
		<path class="st1" d="M357,211.6h-53.1c-1.9-4.3-5-10.1-10.2-15.7c-7.7-8.3-16-12.4-20.8-14.2c2.7,3.9,6.8,11,8.2,20.8
			c0.5,3.4,0.5,6.4,0.4,9.1h-54.2c-10.2,0-18.5,8.3-18.5,18.5v38.5c0,10.2,8.3,18.5,18.5,18.5H357c10.2,0,18.5-8.3,18.5-18.5v-38.5
			C375.5,220,367.2,211.6,357,211.6z M266.5,257.3h-3.4v5.8h-5.8v-5.8h-11.9v-4.1l12.2-18h5.4v17.6h3.4V257.3z M285.6,259.9
			c-1.6,2.3-4.1,3.5-7.4,3.5c-3.2,0-5.7-1.2-7.3-3.6c-1.6-2.4-2.5-6-2.5-10.7c0-4.9,0.8-8.6,2.4-10.9c1.6-2.3,4-3.5,7.4-3.5
			c3.2,0,5.7,1.2,7.3,3.7c1.6,2.4,2.5,6,2.5,10.7C288,254,287.2,257.6,285.6,259.9z M311.1,257.3h-3.4v5.8H302v-5.8h-11.9v-4.1
			l12.2-18h5.4v17.6h3.4V257.3z M319.8,262.7c-0.6,0.6-1.4,0.9-2.4,0.9c-1.1,0-1.9-0.3-2.5-0.9s-0.9-1.4-0.9-2.4
			c0-1.1,0.3-1.9,0.9-2.4c0.6-0.5,1.4-0.8,2.5-0.8c1.1,0,1.9,0.3,2.5,0.8c0.6,0.6,0.9,1.4,0.9,2.4
			C320.7,261.3,320.4,262.1,319.8,262.7z M331,262.7c-0.6,0.6-1.4,0.9-2.4,0.9c-1.1,0-1.9-0.3-2.5-0.9c-0.6-0.6-0.9-1.4-0.9-2.4
			c0-1.1,0.3-1.9,0.9-2.4c0.6-0.5,1.4-0.8,2.5-0.8c1.1,0,1.9,0.3,2.5,0.8c0.6,0.6,0.9,1.4,0.9,2.4
			C331.8,261.3,331.5,262.1,331,262.7z M342.1,262.7c-0.6,0.6-1.4,0.9-2.4,0.9c-1.1,0-1.9-0.3-2.5-0.9c-0.6-0.6-0.9-1.4-0.9-2.4
			c0-1.1,0.3-1.9,0.9-2.4c0.6-0.5,1.4-0.8,2.5-0.8c1.1,0,1.9,0.3,2.5,0.8c0.6,0.6,0.9,1.4,0.9,2.4
			C343,261.3,342.7,262.1,342.1,262.7z"/>
	</g>
</g>
</svg>
