<?xml version="1.0" encoding="utf-8"?>
<!-- Generator: Adobe Illustrator 22.0.0, SVG Export Plug-In . SVG Version: 6.00 Build 0)  -->
<svg version="1.1" id="Layer_1" xmlns="http://www.w3.org/2000/svg" xmlns:xlink="http://www.w3.org/1999/xlink" x="0px" y="0px"
	 viewBox="0 0 400 300" style="enable-background:new 0 0 400 300;" xml:space="preserve">
<style type="text/css">
	.st0{fill:#BFD5DD;}
	.st1{fill:#F99B26;}
</style>
<path class="st0" d="M86,84c-3.7-17.5-19.3-29.4-36.5-29c5.7,4.3,9.9,10.5,11.4,18c3.4,16.4-7,32.4-23.4,35.9
	c-7.5,1.6-14.9,0.2-21-3.2c6.6,15.9,23.8,25.4,41.3,21.7C77.5,123.2,90.2,103.8,86,84z"/>
<path class="st0" d="M206.1,222L206.1,222c0,0-11.4-4.1-14.6,7c-1.3,4.3-1.5,8-1.2,11.1h-7c0.4-2.3,0.6-5,0.6-8.2v-36.5
	c-6.5,1.2-16.5-1.3-26.7-5v18c0,0.8-0.7,1.5-1.5,1.5c-0.9,0-1.5-0.7-1.5-1.5v-19.1c-12.2-4.6-24.1-10.5-29.8-13.5
	c-2.3-1.2-3.6-1.9-3.6-1.9l-1.8-0.9h-3.5c-1.9,0-4.1-0.1-6.4-0.1c-1.5,0-3.1,0-4.7,0H104c-5-0.1-9.9,0.2-14,2.4
	c-6.4,2.7-11.4,8.2-12.3,19.2c-1.8,22.8-1.3,24.1-1.9,34.5c-0.6,10.4,6.5,23.5,25.4,23.5c0.9,0,1.7-0.1,2.5-0.4
	c1.5,0.2,3.1,0.2,4.7,0.2h89.9c0.4,0,0.9,0,1.3-0.2c2,0.2,3.4-0.6,3.4-0.6v0c6.1,0,8.3-11.8,8.6-20.7C211.7,225.2,209,222,206.1,222
	z M108.4,235.8c-0.6-0.2-2.8-0.9-3.2-2.6c-1-3.6-1.2-6-7-5.9c-0.4,0-0.9,0.3-1,0.7c-0.1,0.2-1.5,3.6,1.6,8.2c1.5,2.4,4,4.1,7.2,5.2
	c2,0.6,1.9,3.5-0.2,3.9c-2.8,0.6-5.3,0.3-5.3,0.3c-3.4,0.2-6.9-0.4-8.8-0.9h0c-0.5-0.1-0.9-0.2-1.1-0.3c-2.8-2.2-4.3-5-4.6-8
	c-0.5-5,2.4-9.7,3.7-11.6l-1.3-1.9c-8.9-15-5.8-30-3.3-37.2c1-3,4.1-5.1,7.3-4.7c0,0,0,0,0.1,0l0,0c2.2,0.3,3.4,2.8,2.2,4.6
	c0,0,0,0,0,0.1c-3.7,6-8.5,18.1-1.5,34.9c0.2,0.4,0.7,0.7,1.1,0.6c0.1,0,7.3-0.8,11.4,3.4C108.1,227.2,109,230.9,108.4,235.8z
	 M153.2,225.5c0.8-2.8,2.3-4.8,4.4-5.9c1.5-0.7,3-1,4.5-1c0.2,0,0.4,0,0.5,0c-1.7,1.5-3.1,4.3-3.5,8.5l-0.4,3.9
	c-0.2,2.4-0.4,4.6-0.6,6.5c0,0.4,0,0.8-0.1,1.2c0,0.4,0,0.8,0,1.2v0.5c0,3,0.3,5.2,1.4,6.7c-0.9-0.2-1.8-0.6-2.8-1.3
	c-0.6-0.4-1.5-1.3-2.3-2.7c-0.6-0.9-1.1-1.9-1.5-3.1c-0.2-0.4-0.3-0.8-0.4-1.2c-0.1-0.4-0.2-0.8-0.3-1.2
	C151.6,234.5,151.7,230.5,153.2,225.5z M158.8,249.9H128c-2.2,0-4.1-1.8-4.1-4.1c0-3.2,2.7-5.9,5.9-5.9h20.5
	c0.7,2.5,1.9,4.3,2.9,5.6c0.7,0.9,1.4,1.6,1.9,2c1.8,1.5,3.7,2,5.1,2.1C159.8,249.8,159.3,249.9,158.8,249.9z M169,240.1
	c-0.7,2.2-1.6,4.1-2.8,5.3c-0.1,0.1-0.2,0.2-0.3,0.3c-0.3,0.3-0.7,0.5-1,0.6v-0.1c0,0,0,0.1,0,0.2c-0.4,0.2-0.8,0.2-1.2,0.3h-0.2
	c0,0,0,0-0.1,0h-0.3c-0.3,0-0.5-0.1-0.7-0.1c-0.6-0.2-0.8-0.5-1-0.7c-0.8-1-1.1-2.9-1-5.6v-0.2c0-0.4,0-0.7,0-1.1
	c0-0.4,0-0.8,0.1-1.2c0.1-1.9,0.3-4.1,0.6-6.5l0.4-3.9c0.4-4.5,2-7,3.7-7.8c0.4-0.2,0.9-0.3,1.3-0.3c0.1,0,0.1,0,0.2,0
	c0.3,0,0.7,0.1,1,0.2c1.8,0.7,3.3,3.3,3.2,7.4C170.8,231.3,170.2,236.2,169,240.1z M204.8,248.4c-0.1,0.1-0.2,0.2-0.2,0.3
	c-0.3,0.2-0.7,0.4-0.9,0.6v-0.1c0,0,0,0.1,0,0.2c-0.4,0.1-0.7,0.2-1.1,0.2h-0.2c0,0,0,0-0.1,0H202c-0.3,0-0.5-0.1-0.7-0.1
	c-0.5-0.2-0.8-0.4-0.9-0.6c-0.7-0.9-1-2.7-0.9-5.2v-0.1c0-0.4,0-0.6,0-1c0-0.4,0-0.7,0.1-1.1c0.1-1.8,0.3-3.9,0.5-6.1l0.3-3.6
	c0.4-4.2,1.9-6.5,3.5-7.2c0.4-0.2,0.8-0.3,1.2-0.3c0.1,0,0.1,0,0.2,0c0.3,0,0.6,0.1,0.9,0.2c1.7,0.7,3.1,3.1,3,6.9
	c-0.1,4.1-0.7,8.6-1.8,12.2C206.7,245.6,205.9,247.3,204.8,248.4z"/>
<path class="st0" d="M104.5,162c0.5,0.2,1,0.4,1.5,0.6c0.6,0.2,1.3,0.4,1.9,0.7c1.1,0.4,2.3,0.9,3.5,1.3v0c0.1,0,0.2,0,0.2,0.1
	c1.3,0.4,2.6,1,4,1.5c0.4,0.2,0.8,0.3,1.2,0.5c5.4,2.1,11.1,4.3,16.6,6.4c2.4,0.9,4.7,1.8,7,2.7c7.9,3.1,15.1,5.8,20.1,7.7
	c6.2,2.3,14.2,4.6,22.2,3.2c0.1,0,0.2,0,0.4-0.1c7.7-1.4,15.3-6.3,21.1-18.1c2.4-4.9,4.2-9.6,5.4-14.2c3.6-14,1-26.6-11.5-37.9
	c-0.7-0.6-1.5-1.3-2.3-1.9h0c-1.2-1-2.4-1.9-3.7-2.8c-0.6-0.4-1.1-0.8-1.7-1.2c-1.9-1.3-4.1-2.6-6.3-3.9c-7.2-4-15.3-7.3-23.5-9.3
	c4.2-7.5,10.5-12.8,18.8-15.7c3.9-1.4,7.5-2,10.1-2.2c0.5,1.6,1.8,2.9,3.6,3.2c2.5,0.5,5-1.1,5.5-3.7c0.5-2.5-1.1-5-3.7-5.5
	c-2.4-0.5-4.7,0.9-5.4,3.2c-2.7,0.2-6.6,0.8-10.9,2.3c-6.6,2.3-15.1,7.3-20.8,17.7c-19.5-4-39.9-0.5-53.2,19
	C84.9,144.5,86.9,155.5,104.5,162z M129.9,124.3c6.8-14.2,21.2-17.4,37.1-13c3.8,1.1,7.8,2.6,11.7,4.5c8.2,4,14.4,8.7,18.7,13.7
	c5.6,6.5,8,13.4,7.6,19.7c0,0.8-0.1,1.6-0.2,2.4c-1.9,11.7-9.1,31.3-44.9,18.9c-22.7-7.8-31.9-17.5-33.5-27.9
	C125.3,136.7,126.9,130.4,129.9,124.3z"/>
<path class="st0" d="M159.9,141.1c1,0,2.1-0.1,3.3-0.2c0.9-0.1,1.5-0.9,1.4-1.8c-0.1-0.9-0.9-1.5-1.8-1.4c-4.1,0.6-7.2,0-9.2-1.8
	c-2.4-2.1-2.5-5.2-2.5-5.3c0-0.9-0.7-1.6-1.6-1.6c-0.9,0-1.6,0.7-1.6,1.6c0,0.2,0,4.6,3.6,7.7C153.5,140.2,156.3,141.1,159.9,141.1z
	"/>
<path class="st0" d="M182.1,151.3c1.8,1.1,3.9,1.7,6.3,1.7c1.8,0,3.7-0.3,5.8-0.9c0.9-0.3,1.4-1.2,1.1-2c-0.3-0.9-1.2-1.4-2-1.1
	c-4,1.2-7.2,1-9.4-0.4c-2.7-1.7-3.2-4.8-3.2-4.8c-0.1-0.9-1-1.5-1.9-1.4c-0.9,0.1-1.5,1-1.4,1.9
	C177.4,144.5,178.1,148.8,182.1,151.3z"/>
<g>
	<path class="st1" d="M294.4,113.1c-3.8,0-6.5,4.6-6.5,13.2c0,8.2,2.5,12.9,6.4,12.9c4.4,0,6.5-5.1,6.5-13.2
		C300.9,118.2,298.9,113.1,294.4,113.1z"/>
	<path class="st1" d="M319.7,119.1l-7.7,10.8v0.1h10.4v-10.6c0-1.7,0-3.3,0.1-5h-0.1C321.4,116.3,320.6,117.7,319.7,119.1z"/>
	<path class="st1" d="M269.7,119.1l-7.7,10.8v0.1h10.4v-10.6c0-1.7,0-3.3,0.1-5h-0.1C271.4,116.3,270.6,117.7,269.7,119.1z"/>
	<path class="st1" d="M261.9,78.3c0,0-45.8-10.6-59.8,30.3c-0.4,1.3-0.8,2.5-1.1,3.7c0.7,0.5,1.3,1.1,1.9,1.6
		c13.1,11.9,15.8,25.2,12.1,39.9c-0.1,0.5-0.3,1.1-0.4,1.6c6.1,4.9,13.4,7.6,20.7,7.5c0,0-7.5,23.4-31,40.6c0,0,35.8-4.8,57.5-31.6
		c0,0,30.3,36,65,2.9c0,0,54.9,10.5,57.5-51.2C386.5,72.1,299.3,39.7,261.9,78.3z M280.9,133.3h-4.4v8.6h-4v-8.6h-14.7v-2.8
		l14.1-20.2h4.6V130h4.4V133.3z M294.2,142.5c-6.2,0-10.4-5.8-10.5-16.3c0-10.6,4.6-16.5,11-16.5c6.7,0,10.5,5.9,10.5,16
		C305.2,136.6,301.2,142.5,294.2,142.5z M330.8,133.3h-4.4v8.6h-4v-8.6h-14.7v-2.8l14.1-20.2h4.6V130h4.4V133.3z"/>
</g>
</svg>
