<?xml version="1.0" encoding="utf-8"?>
<!-- Generator: Adobe Illustrator 22.0.0, SVG Export Plug-In . SVG Version: 6.00 Build 0)  -->
<svg version="1.1" id="Layer_1" xmlns="http://www.w3.org/2000/svg" xmlns:xlink="http://www.w3.org/1999/xlink" x="0px" y="0px"
	 viewBox="0 0 400 300" style="enable-background:new 0 0 400 300;" xml:space="preserve">
<style type="text/css">
	.st0{fill:#F99B26;}
	.st1{fill:#BFD5DD;}
</style>
<g>
	<g>
		<path class="st0" d="M58.7,82.4c-1.2,0-2.1,0.7-2.7,2c-0.5,1.3-0.8,3.5-0.8,6.6c0,3.1,0.3,5.3,0.8,6.6c0.5,1.3,1.4,2,2.7,2
			c1.2,0,2.1-0.7,2.7-2c0.5-1.3,0.8-3.5,0.8-6.6c0-3.1-0.3-5.3-0.8-6.6C60.8,83.1,60,82.4,58.7,82.4z"/>
		<path class="st0" d="M78.6,87.3L74,94.3h6V90c0-0.7,0-1.7,0.1-3.1c0.1-1.3,0.1-2.1,0.1-2.3h-0.1C79.7,85.5,79.2,86.4,78.6,87.3z"
			/>
		<path class="st0" d="M38.6,87.3L34,94.3h6V90c0-0.7,0-1.7,0.1-3.1c0.1-1.3,0.1-2.1,0.1-2.3h-0.1C39.7,85.5,39.2,86.4,38.6,87.3z"
			/>
		<path class="st0" d="M118.6,55.2C106,55.2,50.3,52,31.1,52C12,52,8.3,62.3,8.3,72.8c0,10.6-0.9,15.2-0.9,32.8
			c0,17.6,5.6,21.6,17.9,21.6c12.4,0,39.1,0,39.1,0c16.4,19.4,30,21.9,36.2,21.8c1.3,0,1.8-1.6,0.8-2.4
			c-12.5-9.2-12.5-20.5-12.5-20.6c0,0,17.8,0.4,29.5,0.4c11.8,0,16.5-7.8,16.5-13.9c0-6.1,0.4-22.6,0.4-35.3
			C135.2,64.4,131.2,55.2,118.6,55.2z M48.2,98.4h-3v5.2H40v-5.2H29.3v-3.7l11-16.1h4.9v15.7h3V98.4z M65.4,100.7
			c-1.4,2.1-3.6,3.2-6.6,3.2c-2.9,0-5.1-1.1-6.5-3.3C50.7,98.5,50,95.3,50,91c0-4.4,0.7-7.7,2.1-9.8c1.4-2.1,3.6-3.1,6.6-3.1
			c2.9,0,5.1,1.1,6.5,3.3c1.5,2.2,2.2,5.4,2.2,9.6C67.5,95.4,66.8,98.6,65.4,100.7z M88.2,98.4h-3v5.2H80v-5.2H69.3v-3.7l11-16.1
			h4.9v15.7h3V98.4z M95.9,103.2c-0.5,0.5-1.3,0.8-2.2,0.8c-1,0-1.7-0.3-2.2-0.8c-0.5-0.5-0.8-1.2-0.8-2.2c0-1,0.3-1.7,0.8-2.2
			c0.5-0.5,1.3-0.7,2.2-0.7c1,0,1.7,0.2,2.2,0.7c0.5,0.5,0.8,1.2,0.8,2.2S96.5,102.7,95.9,103.2z M105.9,103.2
			c-0.5,0.5-1.3,0.8-2.2,0.8c-1,0-1.7-0.3-2.2-0.8c-0.5-0.5-0.8-1.2-0.8-2.2c0-1,0.3-1.7,0.8-2.2c0.5-0.5,1.3-0.7,2.2-0.7
			c1,0,1.7,0.2,2.2,0.7c0.5,0.5,0.8,1.2,0.8,2.2S106.5,102.7,105.9,103.2z M116,103.2c-0.5,0.5-1.3,0.8-2.2,0.8
			c-1,0-1.7-0.3-2.2-0.8c-0.5-0.5-0.8-1.2-0.8-2.2c0-1,0.2-1.7,0.7-2.2c0.5-0.5,1.3-0.7,2.2-0.7c1,0,1.7,0.2,2.2,0.7
			c0.5,0.5,0.8,1.2,0.8,2.2S116.5,102.7,116,103.2z"/>
	</g>
	<g>
		<path class="st0" d="M333.5,217.8c3.3,3.4,9.1,2.3,12.7-0.9c0.1-0.9-0.1-1.8-0.5-2.8c-2.9-7.5-10.8-4.5-10.8-4.5s-0.3-4.6-5.2-5.2
			c-0.3,0-0.5,0-0.8,0c0.1-0.4,0.1-0.8,0.2-1.2c0-0.1,0.1-0.2,0.1-0.3c0.2-0.9,0.5-1.7,0.7-2.5l1.6-4.2c0.2-0.5,0.4-0.9,0.6-1.3
			l0.6-1.2c-1.8-0.5-3.8-1.7-5.9-3.9c0,0-2.1,6.8-8.5,5.7c-6.4-1-5.8-7.7-5.8-7.7s-1.9,7-10.7,3.1c0,0-0.8,0.8-2.2,1.7v0l0,0
			c0.3,0.4,0.5,0.8,0.7,1.3c0.7,1.3,1.5,2.8,2.2,4.4c0.4,0.9,0.8,1.8,1.2,2.7c0.2,0.5,0.5,1.1,0.6,1.7c0.4,1.3,0.8,2.6,1.2,4
			c-0.2,0-0.4,0.1-0.6,0.2c-3.9,1.2-2.9,4.4-2.6,5.1c-1.5-3.3-10.8-3.2-9.6,5c4.3,3.1,11.4-0.5,11.4-0.5s0.4,3.3,3.3,4.2
			c0.5,0.2,1,0.2,1.6,0.2c4.4,0,5.5-4.6,5.5-4.6s-0.7,4.3,2.8,4.6c3.5,0.3,4.3-3.3,4.3-3.3s2.5,4.6,6.4,4.5h0c0,0,0,0,0,0.1
			c0,0,0,0,0,0c0,0,0,0,0-0.1C332.1,222.1,333.5,217.8,333.5,217.8z"/>
		<path class="st0" d="M266.7,176.4c3.7,8.6,14.8,6.1,14.8,6.1c3.1,2.3,6,3.4,8.6,3.7c0.1,0,0.1,0,0.1,0h0c1.8,0.3,3.5,0.1,4.9-0.2
			c0,0,0,0,0,0c4.2-1,6.7-3.5,6.7-3.5c8.8,3.7,10.6-2.7,10.6-2.7s-0.3,3.1,2,5.3c0.8,0.9,2.1,1.6,3.9,1.9c3.3,0.5,5.4-0.9,6.7-2.4
			c1.2-1.4,1.7-2.9,1.7-2.9c1.2,1.1,2.4,2,3.5,2.6c5.1,2.8,9,0.9,10.9-0.5h0c0.8-0.6,1.2-1.1,1.2-1.1c0.8,0.4,1.6,0.6,2.3,0.9
			c0,0,0,0,0,0c4.2,1.3,7.4,0.6,9.7-0.5c2.8-1.3,4.2-3.3,4.2-3.3s5.9,0.6,8.4-4.4c-0.4-0.6-0.9-1.2-1.4-1.7
			c-0.1-0.2-0.3-0.3-0.5-0.4c-0.1-0.1-0.2-0.2-0.3-0.2c-0.3-0.2-0.6-0.5-0.9-0.6c-1.1-0.8-2.2-1.3-3-1.6c-0.2-0.1-0.4-0.2-0.6-0.2
			c-0.4-0.1-0.6-0.2-0.6-0.2s1.5-2.1,1.1-5c-0.1-0.3-0.1-0.6-0.2-1c-0.1-0.3-0.2-0.7-0.4-1c0-0.1-0.1-0.2-0.1-0.3
			c-0.1-0.3-0.3-0.6-0.5-0.9c0-0.1-0.1-0.2-0.2-0.3c0,0,0,0,0,0s0,0,0,0c-0.2-0.3-0.5-0.6-0.8-1c-0.2-0.2-0.4-0.4-0.6-0.6
			c-0.2-0.2-0.5-0.4-0.7-0.6c-0.2-0.2-0.4-0.3-0.6-0.5c-0.1-0.1-0.2-0.2-0.3-0.3c-0.4-0.3-0.9-0.7-1.5-1c-11-6.8-19.5-0.5-19.5-0.5
			s-1-6.3-12.8-7.5c-11.8-1.2-15.3,10.1-15.3,10.1s-4.9-6.2-17.9-4.5c-13,1.7-13.2,15.9-13.2,15.9s-0.3,0-0.6,0
			c-0.2,0-0.5,0.1-0.8,0.1c-0.6,0.1-1.3,0.2-2,0.4c-0.4,0.1-0.8,0.2-1.2,0.4C269.8,173.2,267.9,174.3,266.7,176.4z"/>
		<path class="st1" d="M217.4,106.7C217.4,106.7,217.4,106.7,217.4,106.7C217.4,106.7,217.4,106.7,217.4,106.7
			c-1.7-0.2-3.4-0.3-5.1-0.3c0,0-0.1,0-0.1,0c0,0,0,0,0,0c-2.9,0-5.8,0.3-8.7,0.8c-0.1,0-0.1,0-0.2,0c-0.1,0-0.1,0-0.2,0
			c-0.9,0.2-1.8,0.4-2.7,0.6c0,0-0.1,0-0.1,0c0,0-0.1,0-0.1,0c-0.9,0.2-1.9,0.5-2.8,0.8c0,0-0.1,0-0.1,0c-0.1,0-0.1,0.1-0.2,0.1
			c-2.4,0.8-4.8,1.7-7.2,2.9c-0.1,0-0.1,0.1-0.2,0.1c0,0-0.1,0-0.1,0c-0.6,0.3-1.1,0.6-1.7,0.9c-0.5,0.2-0.9,0.5-1.4,0.8
			c-0.9,0.5-1.9,1.1-2.8,1.7c-0.1,0.1-0.2,0.1-0.3,0.2c0,0,0,0,0,0c-0.2,0.1-0.4,0.3-0.6,0.4c-0.9,0.6-1.8,1.3-2.7,1.9
			c-0.3,0.2-0.6,0.5-1,0.7c-2.5,1.9-4.9,4-7.4,6.4c-6.2,6.1-10.4,11.3-13,15.8c-9.5,16.4,1.4,23.7,12.7,27.5c0,0,0.1,0,0.4,0.1
			c0.3,0.1,0.6,0.2,1.1,0.4h0c0,0,0,0,0,0c0,0,0,0,0,0l0,0c0.4,0.1,0.8,0.3,1.2,0.4c8.2,2.8,33.4,11.2,50,16.5c0,0,0,0,0.1,0
			c20.1,6.4,28-0.8,37.9-12.5c9.9-11.8,15.1-39.3-9.6-53.7c-5.2-3-10.4-5.7-15.9-7.9c3.1-8.8,8.9-15.3,17.4-19.1
			c3.5-1.6,6.8-2.4,9.2-2.9c0.6,1.4,1.9,2.5,3.6,2.7c2.4,0.3,4.5-1.5,4.8-3.9c0.3-2.4-1.5-4.5-3.9-4.8c-2.2-0.2-4.3,1.3-4.7,3.4
			c-2.5,0.4-6,1.3-9.9,3.1c-6.4,2.9-14.7,8.8-18.8,20.6c0,0,0,0,0,0h0c-3.2-1.2-6.5-2.2-9.8-2.9c0,0,0,0,0,0c0,0,0,0,0,0
			C222.1,107.3,219.8,106.9,217.4,106.7z M243.1,125c21.1,12.8,21.7,27.2,18.9,37.1c-2.7,9.8-13.8,26.3-46,14.6
			c-38.2-13.9-33.8-30.6-23.6-44.9C204.8,114.2,221.9,112.2,243.1,125z"/>
		<path class="st1" d="M214.1,148.3c-1.2,1.7-0.7,4.1,1,5.3c1.7,1.2,4.1,0.7,5.3-1c1.2-1.7,0.7-4.1-1-5.3
			C217.6,146.2,215.3,146.6,214.1,148.3z"/>
		<path class="st1" d="M244.5,164.1c1.2-1.7,0.7-4.1-1-5.3c-1.7-1.2-4.1-0.7-5.3,1c-1.2,1.7-0.7,4.1,1,5.3
			C241,166.3,243.3,165.9,244.5,164.1z"/>
		<path class="st0" d="M293.5,246.6c-1.4,1-2.8,1.8-4,2.5h54.9c-2.3-1.6-6.1-4.6-9.5-9.2c-0.5-0.6-0.9-1.2-1.3-1.9
			c-0.3-0.5-0.6-0.9-0.9-1.4c-0.8-1.3-1.5-2.6-2.1-4.1c-0.2-0.5-0.4-0.9-0.6-1.5c-0.2-0.5-0.4-1.1-0.5-1.6c-0.1-0.3-0.2-0.6-0.3-1
			c-0.5,0.3-1.1,0.5-1.8,0.5c-3.5,0.1-5.7-3.8-5.7-3.8s-0.7,3-3.8,2.7c-2.7-0.2-2.6-2.9-2.6-3.7c-0.3,0.8-1.5,3.6-4.9,3.7
			c-1.4,0-2.4-0.5-3-1c-0.1,1.1-0.4,2.1-0.7,3.1c-0.2,0.8-0.5,1.5-0.8,2.3c-0.4,1.1-0.9,2.1-1.5,3.1c-0.2,0.5-0.5,0.9-0.8,1.3
			c-0.2,0.4-0.5,0.7-0.7,1.1c-1.9,2.6-4.1,4.8-6.3,6.7l-1.4,1L293.5,246.6z"/>
		<path class="st1" d="M368.1,182.6c-0.4,1.9-1.1,3.3-1.9,4.4l20.5-1l-29.8,66.1l-13.5-0.1v0H254l1.8-3.8c2.8,0.8,5.7,1.4,8.4,1.8
			c1,0.5,2.4,0.7,4,0.5c6.7-0.8,7.9-8.3,7.9-8.3l3.4,0.6c0,0-0.5,0.8-0.1,3.9c0.1,1.3,0.7,2.2,1.3,2.7c0.2,0.2,0.3,0.2,0.5,0.3
			c0.7,0.2,1.6-0.1,1.8-0.9l2-6l-0.7-1.5l1.4,0.7l-0.2,3.2c0,2.2,1.5,3.2,2.7,3.7c0.8,0.3,1.6-0.3,1.5-1.1l-0.5-8.5l-1.6-1.8
			l2.4,1.1l0.9,4.1c0.6,2,1.5,3.2,2.4,3.9l3-2.3l-2.6-8c0,0-0.7-0.6-1.7-1.4c0,0-0.1-0.1-0.1-0.1c-0.3-0.3-0.7-0.6-1.1-0.9
			c-0.1-0.1-0.1-0.1-0.2-0.2c-0.4-0.3-0.8-0.6-1.3-0.9c0,0-0.1,0-0.1-0.1c-0.5-0.3-0.9-0.6-1.4-1c-0.1-0.1-0.2-0.1-0.3-0.2
			c-0.5-0.3-1-0.6-1.5-0.9c-0.1,0-0.2-0.1-0.2-0.1c-0.5-0.3-0.9-0.5-1.4-0.7c-0.1,0-0.2-0.1-0.3-0.1c-0.5-0.2-1-0.4-1.4-0.6
			c-0.1,0-0.2-0.1-0.3-0.1c-0.5-0.1-0.9-0.3-1.4-0.3c-4.8-0.5-11.9,6.9-11.9,6.9l-3.8,4.3c-1.6-0.4-3.3-0.9-5-1.4l21.2-44.8
			c-0.1-0.1-0.2-0.1-0.2-0.2c0,0-2.3,0.6-5.1,0.3l-20.6,43c-20.8-8.7-27.8-29.4-30-40.2c-0.5-2.2-2-3.8-3.8-4.6
			c-0.3-0.1-0.5-0.2-0.8-0.2c-0.8-0.4-1.7-0.8-2.7-1.1c-1.5-0.4-3.6-1.1-6.2-2l-0.2,0.7l-4.2,16.7c-0.3,1.2-1.4,1.9-2.6,1.6
			c-1.1-0.3-1.8-1.5-1.6-2.6l4.2-16.8l0.2-0.9c-10.5-3.8-25.6-9.6-36.1-13.1c-0.7-0.2-1.4-0.5-2.1-0.6c0,0,0,0,0,0c0,0,0,0,0,0
			c-1.1-0.4-2.2-0.7-3.2-1c-2.9-0.8-5.6-1.4-8-1.8c0,0-0.1,0-0.1,0c0,0-0.1,0-0.1,0c-0.5-0.1-1-0.1-1.6-0.2c-0.1,0-0.2,0-0.3,0
			c-0.1,0-0.2,0-0.3,0c-0.2,0-0.4,0-0.6,0c-0.4,0-0.9-0.1-1.3-0.1c-0.2,0-0.4,0-0.6,0c-0.9,0-1.8,0-2.6,0.1c0,0,0,0,0,0
			c0,0-0.1,0-0.1,0c-1.4,0.1-2.7,0.4-3.9,0.8c-0.1-0.1-0.2-0.1-0.3-0.2l-0.1,0c-2.1-1.1-4.1-2.3-6-3.6c-1.9-1.3-3.7-2.9-5.3-4.5
			c-3.2-3.3-5.9-7.1-7.6-11.4c-1.7-4.2-2.5-8.8-2.2-13.3c0.3-4.5,1.7-8.8,4.2-12.4c2.4-3.6,5.9-6.4,10-8.7c4.1-2.2,8.8-3.8,13.6-4.9
			c9.7-2.2,20-2.8,30.2-2.5l0,0c1.1,0,2-0.3,2.9-0.8c1.6,0,3.4,0,5.5-0.3c5.5-0.7,8.8-5.9,10.2-8.5l0.1,0.7c0.6,5.3,4.7,4.1,4.7,4.1
			l-1-6.6l0.5-0.1l0.8,2.5c1.4,5.2,5.3,3.2,5.3,3.2l-1.9-6.2l0.4-0.1l2.4,4c1.2,1.9,3.2,3.1,5.3,3l0.5,0l-4-11.2
			c-0.7-1.9-2.3-3.1-4.2-3.1l-2.5,0l-0.4-0.9c-0.6-1.5-2.2-2.3-3.6-1.8l-8.8,2.9l-11.6,7.8c-0.1,0-0.3-0.1-0.4-0.1
			c-10.8-0.6-21.8-0.4-32.9,1.8c-5.5,1.1-11.1,2.8-16.5,5.5c-2.7,1.4-5.4,3-7.9,5c-2.5,2-4.9,4.4-6.8,7.2c-3.9,5.5-6.4,12.2-7,19.1
			c-0.7,6.9,0.3,13.8,2.7,20.1c2.3,6.3,6,11.9,10.3,16.5c2.2,2.3,4.5,4.4,7,6.3c1,0.7,2,1.4,3,2.1c-0.5,0.9-0.9,1.8-1.3,2.8
			c0,0.1-0.1,0.2-0.1,0.3c-0.2,0.5-0.4,1.1-0.7,1.6c0,0.1-0.1,0.2-0.2,0.4c-2.6,6.9-4.3,15.9-5,25.7c-0.9,13.5,0,28.4,3.2,41
			c0.6,2.3,1.2,4.4,1.8,6.2h77.6c0,0,0,0,0,0h94l0,0h53.9l35.6-78.7L368.1,182.6z M248.5,252h-34.9c0-0.4,0.1-0.8,0.1-1.3
			c0.6-10.7,3.5-21.6,6.1-30.3c4.3,8.2,11.2,16.5,22.6,22.4c2.9,1.5,5.8,2.7,8.7,3.8L248.5,252z"/>
	</g>
</g>
</svg>
