<?xml version="1.0" encoding="utf-8"?>
<!-- Generator: Adobe Illustrator 22.0.0, SVG Export Plug-In . SVG Version: 6.00 Build 0)  -->
<svg version="1.1" id="Layer_1" xmlns="http://www.w3.org/2000/svg" xmlns:xlink="http://www.w3.org/1999/xlink" x="0px" y="0px"
	 viewBox="0 0 400 300" style="enable-background:new 0 0 400 300;" xml:space="preserve">
<style type="text/css">
	.st0{fill:#BFD5DD;}
	.st1{fill:#7DD3D3;}
	.st2{fill:#F99B26;}
</style>
<g>
	<path class="st0" d="M116.4,257.2c-4.8,0-8.6-3.9-8.6-8.6c0-4.8,3.9-8.6,8.6-8.6c4.8,0,8.6,3.9,8.6,8.6
		C125,253.4,121.1,257.2,116.4,257.2z"/>
	<path class="st0" d="M157.3,232.2c0-1.4,1.1-2.6,2.5-2.6c1.4,0,2.5,1.1,2.6,2.5c0,1.4-1.2,2.6-2.5,2.6
		C158.5,234.8,157.3,233.7,157.3,232.2z"/>
	<path class="st0" d="M205.3,211.3v10.3c0,19,0,46.5,0,46.5h-18.8c0.3-3.3,0.1-11.3-9.3-13c-4.3-0.7-7.8-0.7-10.8-0.2l-0.1-22.8
		c0-4.1-3.4-7.4-7.5-7.4c-3,0-5.5,2.5-5.5,5.6l0.2,37.8h-34.9c1-0.5,1.7-1.5,1.7-2.6v-0.2c1.7-0.4,3.2-1,4.6-1.8l0.1,0.1
		c1.1,1.1,2.9,1.1,4,0l2.1-2.1c1.1-1.1,1.1-2.9,0-4l-0.1,0c0.9-1.4,1.5-3,1.9-4.6h0.1c1.5,0,2.8-1.2,2.8-2.8v-3
		c0-1.6-1.2-2.8-2.8-2.8h-0.2c-0.4-1.6-1.1-3.1-2-4.5l0.2-0.2c1.1-1.1,1.1-2.9,0-4l-2.1-2.1c-1.1-1.1-2.9-1.1-4,0l-0.3,0.3
		c-1.4-0.8-2.8-1.4-4.4-1.7v-0.5c0-1.6-1.2-2.8-2.8-2.8h-3c-1.6,0-2.8,1.2-2.8,2.8v0.6c-1.5,0.4-2.9,1-4.2,1.8l-0.5-0.5
		c-1.1-1.1-2.9-1.1-4,0l-2.1,2.1c-1.1,1.1-1.1,2.9,0,4l0.5,0.5c-0.7,1.3-1.4,2.7-1.7,4.2h-0.7c-1.6,0-2.8,1.2-2.8,2.8v3
		c0,1.5,1.2,2.8,2.8,2.8h0.6c0.4,1.5,1,3,1.7,4.3l-0.4,0.4c-1.1,1.1-1.1,2.9,0,4l2.1,2.1c1.1,1.1,2.9,1.1,4,0l0.3-0.3
		c1.3,0.8,2.8,1.5,4.4,1.9v0.3c0,1.2,0.7,2.2,1.7,2.6H82.6c0,0,0-26.7,0-46.5v-10.3c0-1,0-2,0.1-3.1c0-0.4,0-0.7,0.1-1.1
		c0-0.1,0-0.2,0-0.4c0-0.7,0.1-1.5,0.2-2.3c0-0.3,0-0.6,0.1-0.8c0.1-0.7,0.2-1.4,0.4-2.1c0-0.3,0.1-0.7,0.2-1
		c0.2-0.8,0.4-1.7,0.7-2.4c0-0.2,0-0.3,0.1-0.5c0.2-0.7,0.5-1.5,0.8-2.1c0-0.2,0.1-0.3,0.2-0.5c0.3-0.7,0.6-1.3,0.9-2c0,0,0,0,0,0
		c0.1-0.2,0.2-0.4,0.3-0.6c0,0,0,0,0-0.1c0.2-0.3,0.4-0.7,0.6-1c0.2-0.4,0.4-0.7,0.6-1c0.4-0.6,0.8-1.2,1.2-1.7
		c0.8-1.2,1.7-2.2,2.8-3.2c0.5-0.5,1-1,1.6-1.5c0.6-0.5,1.2-1,1.8-1.4c0.2-0.2,0.3-0.3,0.5-0.4c0.7-0.5,1.5-1,2.2-1.4c0,0,0,0,0,0
		c0.8-0.4,1.6-0.8,2.4-1.2c0.9-0.4,1.8-0.7,2.8-1.1c1.1-0.4,2.3-0.7,3.5-1c0.7-0.2,1.4-0.3,2.1-0.4c2-0.3,4.2-0.5,6.5-0.6
		c0.1,0,0.3,0,0.4,0h59.7c5.7,0,10.5,1.1,14.3,3.1c1,0.5,1.9,1,2.7,1.6c0,0,0,0,0,0c0.8,0.6,1.6,1.2,2.4,1.9
		c0.7,0.7,1.5,1.4,2.1,2.1l0,0c0.6,0.7,1.2,1.5,1.8,2.3l0,0c0.5,0.8,1.1,1.7,1.5,2.6c0.4,0.7,0.7,1.5,1.1,2.2
		c0.2,0.5,0.5,1.1,0.7,1.6c0.1,0.3,0.2,0.6,0.3,0.9c0.2,0.6,0.4,1.2,0.6,1.8c0,0.1,0.1,0.2,0.1,0.2c0.5,1.6,0.8,3.2,1.1,4.9
		c0.2,1,0.3,2.1,0.4,3.2c0.1,0.8,0.2,1.7,0.2,2.5v0.1C205.2,208.9,205.3,210.1,205.3,211.3z"/>
	<path class="st0" d="M175.8,176.4c-23,0-34.6,0-58.8,0c-24.2,0-34.4,16-34.4,34.9c0,3,0,6.5,0,10.3c0-18.9,10.2-34.9,34.4-34.9
		c24.2,0,35.8,0,58.8,0c23,0,29.5,17.9,29.5,34.9c0-3.9,0-7.4,0-10.3C205.3,194.3,198.8,176.4,175.8,176.4z"/>
	<path class="st1" d="M278.3,239.3c0.6,0.6,0.6,1.7,0,2.3c-0.7,0.6-1.7,0.6-2.4,0l-2.4-2.4l-2.4,2.4c-0.6,0.6-1.7,0.6-2.3,0
		c-0.6-0.7-0.6-1.7,0-2.3l2.4-2.4l-2.4-2.4c-0.6-0.6-0.6-1.7,0-2.3c0.3-0.3,0.7-0.5,1.2-0.5c0.4,0,0.9,0.1,1.2,0.5l2.4,2.4l2.4-2.4
		c0.7-0.6,1.7-0.6,2.4,0c0.3,0.3,0.5,0.7,0.5,1.2c0,0.4-0.1,0.8-0.5,1.2l-2.4,2.4L278.3,239.3z"/>
	<path class="st1" d="M278.3,202.2c0.6,0.6,0.6,1.7,0,2.3c-0.7,0.6-1.7,0.6-2.4,0l-2.4-2.4l-2.4,2.4c-0.6,0.6-1.7,0.6-2.3,0
		c-0.6-0.7-0.6-1.7,0-2.3l2.4-2.4l-2.4-2.4c-0.6-0.6-0.6-1.7,0-2.3c0.3-0.3,0.7-0.5,1.2-0.5c0.4,0,0.9,0.1,1.2,0.5l2.4,2.4l2.4-2.4
		c0.7-0.6,1.7-0.6,2.4,0c0.3,0.3,0.5,0.7,0.5,1.2c0,0.4-0.1,0.8-0.5,1.2l-2.4,2.4L278.3,202.2z"/>
	<path class="st0" d="M308.9,187.3c-0.4-0.7-0.9-1.4-1.5-2.1c-11-14.5-29.4-17.9-41.1-19.5c-17.7-2.5-36-1.3-36-1.3l-3.6,102.3
		c0,0,0,0,0,0h42.5c13.5,0,41.4-3.7,46.6-37.7v0c0.3-2.1,0.6-4.4,0.7-6.8c0.1-1.2,0.2-2.4,0.2-3.7
		C317,204.8,313.9,194.8,308.9,187.3z M254.5,253.3c0,0-10.2,0.9-11.5-10.2c-1.3-11,0.7-41.6,2-51.7c0.5-4.4,1.6-7.2,3.4-9.1
		c2.4-2.4,6.3-3.1,12.2-3.1c7.2,0,24.8,1.1,35,14c4.6,5.8,7.7,13.9,7.7,25.4C303.3,255.9,265.4,253.3,254.5,253.3z"/>
	<path class="st0" d="M316.8,218.5c0,1.3-0.1,2.5-0.2,3.7c-0.1,2.4-0.4,4.6-0.7,6.8c-1.6-18.6-10.1-29.4-20.3-35.7
		c-10.2-12.9-27.8-14-35-14c-5.9,0-9.8,0.7-12.2,3.1c-10.5-0.4-18.6,0.2-18.6,0.2l-2.9,84.2c0,0,0,0,0,0l3.6-102.3
		c0,0,18.3-1.2,36,1.3c11.6,1.7,30,5,41.1,19.5c0.5,0.7,1,1.4,1.5,2.1C313.9,194.8,317,204.8,316.8,218.5z"/>
	<path class="st1" d="M278.3,239.3c0.6,0.6,0.6,1.7,0,2.3c-0.7,0.6-1.7,0.6-2.4,0l-2.4-2.4l-2.4,2.4c-0.6,0.6-1.7,0.6-2.3,0
		c-0.6-0.7-0.6-1.7,0-2.3l2.4-2.4l-2.4-2.4c-0.6-0.6-0.6-1.7,0-2.3c0.3-0.3,0.7-0.5,1.2-0.5c0.4,0,0.9,0.1,1.2,0.5l2.4,2.4l2.4-2.4
		c0.7-0.6,1.7-0.6,2.4,0c0.3,0.3,0.5,0.7,0.5,1.2c0,0.4-0.1,0.8-0.5,1.2l-2.4,2.4L278.3,239.3z"/>
	<path class="st1" d="M278.3,202.2c0.6,0.6,0.6,1.7,0,2.3c-0.7,0.6-1.7,0.6-2.4,0l-2.4-2.4l-2.4,2.4c-0.6,0.6-1.7,0.6-2.3,0
		c-0.6-0.7-0.6-1.7,0-2.3l2.4-2.4l-2.4-2.4c-0.6-0.6-0.6-1.7,0-2.3c0.3-0.3,0.7-0.5,1.2-0.5c0.4,0,0.9,0.1,1.2,0.5l2.4,2.4l2.4-2.4
		c0.7-0.6,1.7-0.6,2.4,0c0.3,0.3,0.5,0.7,0.5,1.2c0,0.4-0.1,0.8-0.5,1.2l-2.4,2.4L278.3,202.2z"/>
	<path class="st0" d="M192.1,92.6c-2.8-1.3-6,0-7.2,2.8l-6.8,15.9l-2.6,6.1l-2.3,5.4l-2.3,5.5l-1,2.3c-5.9-0.8-11.9,2.2-14.6,8
		c-1.7,3.6-1.7,7.5-0.3,11l2.6,1.2l4-8.7l8.1-0.9l4.3,6.6l-4.1,8.7l2.6,1.2c3.5-1.2,6.5-3.7,8.2-7.3c2.7-5.7,1.1-12.2-3.3-16.3
		l1.2-2.4l8.5-16.7l7.6-15.1C196,97.2,194.9,93.8,192.1,92.6z M191.5,98.4c-0.4,0.9-1.5,1.3-2.3,0.9c-0.9-0.4-1.3-1.5-0.9-2.3
		c0.4-0.9,1.5-1.3,2.4-0.9C191.5,96.5,191.9,97.5,191.5,98.4z"/>
	<path class="st0" d="M372.9,254.5h-30.4c-3.6,0-6.5,2.9-6.5,6.5c0,2.9,1.8,5.2,4.4,6.1c0,0,0,0,0.1,0c0.6,0.2,1.3,0.3,2,0.3h32.3
		c3,0,5.5-2.5,5.5-5.5C380.4,257.9,377,254.5,372.9,254.5z M372.8,263.6c-1.4,0-2.6-1.1-2.6-2.5c0-1.4,1.2-2.6,2.6-2.6
		c1.4,0,2.5,1.2,2.5,2.6C375.4,262.4,374.3,263.6,372.8,263.6z"/>
	<path class="st0" d="M332.6,235.6c0,0,11.9-4.2,15.3,7.4c3.4,11.6,0,19.1-4.1,22.5c-4.1,3.4-8,1.2-8,1.2L332.6,235.6z"/>
	<path class="st0" d="M17.1,253.3l0,0.3c0.2,1.5,1.4,2.6,2.9,2.6l7.6,0.4c1.4,0.1,2.5,1.2,2.6,2.6l0,0c0.1,1.5-1.1,2.8-2.6,2.8
		l-7.6,0.3c-1.5,0.1-2.6,1.4-2.7,2.9l0,0c0,1.6,1.3,3,2.9,3c2.7,0,6.8,0,10.5-0.1c6.1-0.1,9.2-4.1,9-9.2c-0.2-5.1-3.6-9.8-10.3-9.7
		c-3.9,0.1-7.6,0.5-10,0.9C18.1,250.3,17,251.7,17.1,253.3z"/>
	<path class="st0" d="M187.1,129.6c0,0,21.6,9.4,25.4,27.8c3.8,18.4-14.1,28-14.1,28l4.6,11.6c0,0,27.3-11.1,18.9-43.4
		c-5.5-21.2-32.1-29.1-32.1-29.1L187.1,129.6z"/>
	<path class="st1" d="M278.3,204.6c-0.7,0.6-1.7,0.6-2.4,0l-2.4-2.4l-2.3-2.3l-2.4-2.4c-0.6-0.6-0.6-1.7,0-2.3
		c0.3-0.3,0.7-0.5,1.2-0.5c0.4,0,0.9,0.1,1.2,0.5l4.8,4.8l2.4,2.4C278.9,202.9,278.9,203.9,278.3,204.6z"/>
	<path class="st0" d="M278.7,196.2c0,0.4-0.1,0.8-0.5,1.2l-2.4,2.4l-2.4,2.3l-2.4,2.4c-0.6,0.6-1.7,0.6-2.3,0
		c-0.6-0.7-0.6-1.7,0-2.3l2.4-2.4l2.3-2.4l2.4-2.4c0.7-0.6,1.7-0.6,2.4,0C278.6,195.4,278.7,195.8,278.7,196.2z"/>
	<path class="st1" d="M278.3,241.7c-0.7,0.6-1.7,0.6-2.4,0l-2.4-2.4l-2.3-2.3l-2.4-2.4c-0.6-0.6-0.6-1.7,0-2.3
		c0.3-0.3,0.7-0.5,1.2-0.5c0.4,0,0.9,0.1,1.2,0.5l4.8,4.8l2.4,2.4C278.9,240,278.9,241,278.3,241.7z"/>
	<path class="st0" d="M278.7,233.3c0,0.4-0.1,0.8-0.5,1.2l-2.4,2.4l-2.4,2.3l-2.4,2.4c-0.6,0.6-1.7,0.6-2.3,0
		c-0.6-0.7-0.6-1.7,0-2.3l2.4-2.4l2.3-2.4l2.4-2.4c0.7-0.6,1.7-0.6,2.4,0C278.6,232.5,278.7,232.9,278.7,233.3z"/>
	<rect x="49.2" y="259.3" class="st0" width="22.4" height="8.3"/>
	<polygon class="st0" points="64.2,237.4 64.2,241.8 56.6,239.4 56.6,237.4 	"/>
	<polygon class="st0" points="56.6,241.5 64.2,243.9 64.2,246.3 56.6,243.8 	"/>
	<polygon class="st0" points="56.6,245.9 64.2,248.3 64.2,250.4 56.6,248 	"/>
	<polygon class="st0" points="56.6,250 64.2,252.5 64.2,260.6 56.6,260.6 	"/>
	<path class="st0" d="M112.4,214.9c-0.9,0-1.7-0.7-1.8-1.6c-0.1-1,0.6-1.9,1.6-2l0,0c0.7-0.1,6.7-1.1,6.6-7.9c0-2.7-2.6-5.6-5.6-8.9
		c-5.3-5.9-11.8-13.2-9.9-25c1.6-10,9.9-17.6,18.9-17.6c0.1,0,0.2,0,0.3,0c8.5,0.2,14.5,7.1,15.9,18.6c0.1,1-0.6,1.9-1.6,2
		c-1,0.1-1.9-0.6-2-1.6c-1.2-9.7-5.7-15.3-12.4-15.4c-0.1,0-0.1,0-0.2,0c-6.3,0-13.9,5.5-15.4,14.6c-1.7,10.1,4,16.4,9,22
		c3.5,3.9,6.5,7.3,6.5,11.3c0,8.1-6.4,11.1-9.8,11.5C112.6,214.9,112.5,214.9,112.4,214.9z"/>
	<path class="st0" d="M139.7,171.2c-0.1,0-0.1,0-0.2,0c-1-0.1-1.7-1-1.6-2c0-0.2,1.8-16.7-6.6-21.5c-13.7-7.9-21.5,4-21.8,4.5
		c-0.5,0.8-1.7,1.1-2.5,0.6c-0.8-0.5-1.1-1.6-0.6-2.5c0.1-0.2,9.9-15.3,26.7-5.7c10.5,6,8.4,24.3,8.4,25.1
		C141.4,170.6,140.6,171.2,139.7,171.2z"/>
	<path class="st0" d="M94.9,184.9l-1.2-1l-9.3-7.7c2.4-0.9,4.5-2.3,6.2-4.4c5.2-6.2,4.3-15.4-1.9-20.6c-6.2-5.1-15.5-4.3-20.6,1.9
		c-3,3.6-4,8.3-3,12.6c-4.4-0.2-8.8,1.6-11.8,5.3c-5.2,6.2-4.3,15.4,1.9,20.6c6.2,5.2,15.4,4.4,20.6-1.9c1.7-2.1,2.8-4.5,3.2-7
		l9.2,7.7l1.3,1.1c1.8,1.5,4.5,1.2,6-0.5C96.9,189,96.6,186.4,94.9,184.9z M69,184c-2.1,2.5-5.8,2.9-8.3,0.8
		c-2.5-2.1-2.9-5.8-0.7-8.3c2.1-2.5,5.8-2.8,8.3-0.7C70.7,177.8,71.1,181.5,69,184z M75.5,166.9c-2.5-2.1-2.9-5.8-0.7-8.3
		c2.1-2.5,5.8-2.8,8.3-0.7c2.5,2.1,2.9,5.8,0.7,8.3C81.8,168.7,78,169,75.5,166.9z"/>
	<path class="st0" d="M172.1,112.5l-0.1,0.3c-0.5,1.4,0.2,3,1.6,3.6l6.8,3.4c1.3,0.6,1.8,2.1,1.3,3.4l0,0c-0.6,1.4-2.1,2.1-3.5,1.5
		l-7-2.8c-1.4-0.5-3,0.2-3.6,1.6l0,0c-0.7,1.5,0,3.2,1.5,3.9c2.5,1.1,6.2,2.8,9.6,4.2c5.6,2.4,10.1,0,12-4.8
		c1.9-4.8,0.7-10.4-5.4-13c-3.6-1.5-7.1-2.6-9.4-3.3C174.1,110.1,172.5,111,172.1,112.5z"/>
	<rect x="116.1" y="168.8" class="st0" width="55.7" height="7.6"/>
	<path class="st0" d="M332.4,182.3c4.1,1,7.4,2.6,9.6,3.8c1.7-1.4,4.2-1.3,5.8,0.3c1.7,1.7,1.7,4.4,0,6.1c-1.7,1.7-4.4,1.7-6.1,0
		c-1.2-1.2-1.5-2.8-1.1-4.3c-2.1-1.1-5.2-2.5-8.9-3.4c-9.3-2.3-18.2-0.8-26.2,4.6l-1.4-2.1C314.9,180,325.4,180.6,332.4,182.3z"/>
	<g>
		<path class="st2" d="M289.8,73.1c-1.3,0-2.3,0.7-2.9,2.2c-0.6,1.4-0.9,3.8-0.9,7.2c0,3.3,0.3,5.7,0.9,7.1c0.6,1.4,1.5,2.2,2.9,2.2
			c1.3,0,2.3-0.7,2.9-2.2c0.6-1.5,0.9-3.8,0.9-7.1c0-3.3-0.3-5.7-0.9-7.2S291.1,73.1,289.8,73.1z"/>
		<path class="st2" d="M311.3,78.4l-5,7.5h6.5v-4.6c0-0.8,0-1.9,0.1-3.3c0.1-1.5,0.1-2.3,0.1-2.5h-0.1
			C312.5,76.4,311.9,77.4,311.3,78.4z"/>
		<path class="st2" d="M268,78.4l-5,7.5h6.5v-4.6c0-0.8,0-1.9,0.1-3.3c0.1-1.5,0.1-2.3,0.1-2.5h-0.1C269.2,76.4,268.7,77.4,268,78.4
			z"/>
		<path class="st2" d="M366.1,46.1H240.5c-9.9,0-17.9,8.1-17.9,17.9v37.3c0,9.9,8.1,17.9,17.9,17.9h17.7c1,2.9,1.9,6.4,2.3,10.3
			c1.2,10.3-1.2,18.6-2.8,23.1c4-2.5,11.8-8.3,17.4-18.7c2.9-5.4,4.4-10.6,5.2-14.8h85.8c9.9,0,17.9-8.1,17.9-17.9V64.1
			C384,54.2,375.9,46.1,366.1,46.1z M278.4,90.3h-3.3v5.6h-5.6v-5.6H258v-4l11.9-17.5h5.3v17h3.3V90.3z M297,92.9
			c-1.5,2.3-3.9,3.4-7.2,3.4c-3.1,0-5.5-1.2-7.1-3.5c-1.6-2.3-2.4-5.8-2.4-10.4c0-4.8,0.8-8.3,2.3-10.6c1.5-2.3,3.9-3.4,7.1-3.4
			c3.1,0,5.5,1.2,7.1,3.6c1.6,2.4,2.4,5.8,2.4,10.4C299.3,87.1,298.5,90.6,297,92.9z M321.7,90.3h-3.3v5.6h-5.6v-5.6h-11.5v-4
			l11.9-17.5h5.3v17h3.3V90.3z M330.1,95.6c-0.6,0.6-1.4,0.8-2.4,0.8c-1,0-1.8-0.3-2.4-0.8c-0.6-0.5-0.9-1.3-0.9-2.3
			c0-1,0.3-1.8,0.8-2.3c0.6-0.5,1.4-0.8,2.4-0.8c1,0,1.8,0.3,2.4,0.8c0.6,0.5,0.8,1.3,0.8,2.3C330.9,94.3,330.6,95,330.1,95.6z
			 M340.9,95.6c-0.6,0.6-1.4,0.8-2.4,0.8c-1,0-1.8-0.3-2.4-0.8c-0.6-0.5-0.9-1.3-0.9-2.3c0-1,0.3-1.8,0.8-2.3
			c0.6-0.5,1.4-0.8,2.4-0.8c1,0,1.8,0.3,2.4,0.8c0.6,0.5,0.8,1.3,0.8,2.3C341.7,94.3,341.4,95,340.9,95.6z M351.7,95.6
			c-0.6,0.6-1.4,0.8-2.4,0.8c-1,0-1.8-0.3-2.4-0.8c-0.6-0.5-0.9-1.3-0.9-2.3c0-1,0.3-1.8,0.8-2.3c0.6-0.5,1.4-0.8,2.4-0.8
			c1,0,1.8,0.3,2.4,0.8c0.6,0.5,0.8,1.3,0.8,2.3C352.5,94.3,352.2,95,351.7,95.6z"/>
	</g>
</g>
</svg>
