<svg width="20" height="20" viewBox="0 0 20 20" fill="none" xmlns="http://www.w3.org/2000/svg">
<rect x="0.5" y="11.5" width="19" height="8" rx="2.5" stroke="#3C5B9A"/>
<path d="M4 10C4 6.68629 6.68629 4 10 4V4C13.3137 4 16 6.68629 16 10V10C16 13.3137 13.3137 16 10 16V16C6.68629 16 4 13.3137 4 10V10Z" fill="#3C5B9A"/>
<path d="M4.5 8.5C2.29086 8.5 0.5 6.70914 0.5 4.5C0.5 2.29086 2.29086 0.5 4.5 0.5C6.70914 0.5 8.5 2.29086 8.5 4.5C8.5 6.70914 6.70914 8.5 4.5 8.5Z" stroke="#3C5B9A"/>
<line x1="4" y1="15.5" x2="16" y2="15.5" stroke="#3C5B9A"/>
<path d="M11.2052 11.5453C11.2052 11.287 11.1121 11.0695 10.9259 10.8926C10.7426 10.7158 10.4318 10.5558 9.99356 10.4126C9.38346 10.2302 8.93806 9.99298 8.65736 9.70105C8.37952 9.40632 8.2406 9.03298 8.2406 8.58105C8.2406 8.1207 8.37666 7.74316 8.64876 7.44842C8.92374 7.15368 9.30039 6.97825 9.77873 6.92211V6H10.4189V6.92632C10.9001 6.99088 11.2739 7.18877 11.5403 7.52C11.8095 7.85123 11.9441 8.30456 11.9441 8.88H11.1536C11.1536 8.48421 11.0576 8.16982 10.8657 7.93684C10.6738 7.70386 10.4146 7.58737 10.0881 7.58737C9.74723 7.58737 9.48657 7.67439 9.30612 7.84842C9.12567 8.01965 9.03545 8.25965 9.03545 8.56842C9.03545 8.85474 9.12997 9.08351 9.31901 9.25474C9.51092 9.42316 9.82456 9.57754 10.2599 9.71789C10.6982 9.85544 11.039 10.0084 11.2825 10.1768C11.5288 10.3425 11.7093 10.5361 11.8238 10.7579C11.9413 10.9796 12 11.2393 12 11.5368C12 12.0112 11.8539 12.393 11.5618 12.6821C11.2725 12.9712 10.8657 13.1425 10.3416 13.1958V14H9.70569V13.1958C9.17293 13.1481 8.75474 12.9628 8.45113 12.64C8.15038 12.3144 8 11.8737 8 11.3179H8.79484C8.79484 11.7081 8.89939 12.0084 9.10849 12.2189C9.31758 12.4295 9.61404 12.5347 9.99785 12.5347C10.3731 12.5347 10.6681 12.4463 10.8829 12.2695C11.0977 12.0926 11.2052 11.8512 11.2052 11.5453Z" fill="white"/>
<path d="M5.40387 5.46579C5.40387 5.30439 5.33405 5.16842 5.19441 5.05789C5.05693 4.94737 4.82385 4.84737 4.49517 4.75789C4.03759 4.64386 3.70354 4.49561 3.49302 4.31316C3.28464 4.12895 3.18045 3.89561 3.18045 3.61316C3.18045 3.32544 3.28249 3.08947 3.48657 2.90526C3.6928 2.72105 3.9753 2.6114 4.33405 2.57632V2H4.81418V2.57895C5.17508 2.6193 5.45542 2.74298 5.65521 2.95C5.85714 3.15702 5.95811 3.44035 5.95811 3.8H5.3652C5.3652 3.55263 5.29323 3.35614 5.1493 3.21053C5.00537 3.06491 4.81096 2.99211 4.56606 2.99211C4.31042 2.99211 4.11493 3.04649 3.97959 3.15526C3.84425 3.26228 3.77658 3.41228 3.77658 3.60526C3.77658 3.78421 3.84748 3.92719 3.98926 4.03421C4.13319 4.13947 4.36842 4.23596 4.69495 4.32368C5.02363 4.40965 5.27927 4.50526 5.46187 4.61053C5.64662 4.71404 5.78195 4.83509 5.86788 4.97368C5.95596 5.11228 6 5.27456 6 5.46053C6 5.75702 5.89044 5.99561 5.67132 6.17632C5.45435 6.35702 5.1493 6.46404 4.75618 6.49737V7H4.27927V6.49737C3.8797 6.46754 3.56606 6.35175 3.33835 6.15C3.11278 5.94649 3 5.67105 3 5.32368H3.59613C3.59613 5.56754 3.67454 5.75526 3.83136 5.88684C3.98818 6.01842 4.21053 6.08421 4.49839 6.08421C4.77981 6.08421 5.00107 6.02895 5.16219 5.91842C5.32331 5.80789 5.40387 5.65702 5.40387 5.46579Z" fill="#3C5B9A"/>
</svg>
