<svg width="20" height="20" viewBox="0 0 20 20" fill="none" xmlns="http://www.w3.org/2000/svg">
<rect x="0.5" y="0.5" width="19" height="8" rx="2.5" stroke="#3C5B9A"/>
<line x1="4" y1="3.5" x2="16" y2="3.5" stroke="#3C5B9A"/>
<path d="M4 6H16V17C16 18.6569 14.6569 20 13 20H4V6Z" fill="#3C5B9A"/>
<path d="M11.2052 14.5453C11.2052 14.287 11.1121 14.0695 10.9259 13.8926C10.7426 13.7158 10.4318 13.5558 9.99356 13.4126C9.38346 13.2302 8.93806 12.993 8.65736 12.7011C8.37952 12.4063 8.2406 12.033 8.2406 11.5811C8.2406 11.1207 8.37666 10.7432 8.64876 10.4484C8.92374 10.1537 9.30039 9.97825 9.77873 9.92211V9H10.4189V9.92632C10.9001 9.99088 11.2739 10.1888 11.5403 10.52C11.8095 10.8512 11.9441 11.3046 11.9441 11.88H11.1536C11.1536 11.4842 11.0576 11.1698 10.8657 10.9368C10.6738 10.7039 10.4146 10.5874 10.0881 10.5874C9.74723 10.5874 9.48657 10.6744 9.30612 10.8484C9.12567 11.0196 9.03545 11.2596 9.03545 11.5684C9.03545 11.8547 9.12997 12.0835 9.31901 12.2547C9.51092 12.4232 9.82456 12.5775 10.2599 12.7179C10.6982 12.8554 11.039 13.0084 11.2825 13.1768C11.5288 13.3425 11.7093 13.5361 11.8238 13.7579C11.9413 13.9796 12 14.2393 12 14.5368C12 15.0112 11.8539 15.393 11.5618 15.6821C11.2725 15.9712 10.8657 16.1425 10.3416 16.1958V17H9.70569V16.1958C9.17293 16.1481 8.75474 15.9628 8.45113 15.64C8.15038 15.3144 8 14.8737 8 14.3179H8.79484C8.79484 14.7081 8.89939 15.0084 9.10849 15.2189C9.31758 15.4295 9.61404 15.5347 9.99785 15.5347C10.3731 15.5347 10.6681 15.4463 10.8829 15.2695C11.0977 15.0926 11.2052 14.8512 11.2052 14.5453Z" fill="white"/>
</svg>
