<?xml version="1.0" encoding="utf-8"?>
<!-- Generator: Adobe Illustrator 22.0.0, SVG Export Plug-In . SVG Version: 6.00 Build 0)  -->
<svg version="1.1" id="Layer_1" xmlns="http://www.w3.org/2000/svg" xmlns:xlink="http://www.w3.org/1999/xlink" x="0px" y="0px"
	 viewBox="0 0 400 300" style="enable-background:new 0 0 400 300;" xml:space="preserve">
<style type="text/css">
	.st0{fill:#F99B26;}
	.st1{fill:#BFD5DD;}
</style>
<g>
	<g>
		<path class="st0" d="M100.1,47.5c-1.4,0-2.5,0.8-3.1,2.3C96.3,51.4,96,54,96,57.5c0,3.6,0.3,6.1,0.9,7.7c0.6,1.5,1.7,2.3,3.1,2.3
			c1.4,0,2.5-0.8,3.1-2.3c0.6-1.6,1-4.1,1-7.6c0-3.6-0.3-6.1-1-7.7C102.5,48.3,101.5,47.5,100.1,47.5z"/>
		<path class="st0" d="M123.2,53.2l-5.3,8.1h7v-4.9c0-0.8,0-2,0.1-3.6c0.1-1.6,0.1-2.5,0.2-2.7h-0.2
			C124.4,51.1,123.8,52.2,123.2,53.2z"/>
		<path class="st0" d="M76.6,53.2l-5.3,8.1h7v-4.9c0-0.8,0-2,0.1-3.6c0.1-1.6,0.1-2.5,0.2-2.7h-0.2C77.9,51.1,77.3,52.2,76.6,53.2z"
			/>
		<path class="st0" d="M169.7,15.8c-14.6,0-79.5-3.7-101.8-3.7c-22.2,0-26.6,11.9-26.6,24.2c0,12.3-1.1,17.6-1.1,38.2
			c0,20.5,6.5,25.2,20.9,25.2c14.4,0,45.5,0,45.5,0c19.1,22.5,34.9,25.4,42.1,25.3c1.5,0,2.1-1.9,0.9-2.7
			c-14.5-10.7-14.6-23.8-14.6-23.9c0,0,20.7,0.5,34.4,0.5c13.7,0,19.2-9.1,19.2-16.2c0-7.1,0.4-26.3,0.4-41.1
			C189.1,26.6,184.4,15.8,169.7,15.8z M87.8,66.1h-3.5v6h-6v-6H65.9v-4.3L78.6,43h5.7v18.3h3.5V66.1z M107.8,68.8
			c-1.7,2.5-4.2,3.7-7.7,3.7c-3.3,0-5.9-1.3-7.6-3.8c-1.7-2.5-2.5-6.3-2.5-11.2c0-5.1,0.8-8.9,2.5-11.4c1.7-2.4,4.2-3.7,7.7-3.7
			c3.4,0,5.9,1.3,7.6,3.8c1.7,2.6,2.6,6.3,2.6,11.2C110.2,62.6,109.4,66.4,107.8,68.8z M134.4,66.1h-3.5v6h-6v-6h-12.4v-4.3
			L125.2,43h5.7v18.3h3.5V66.1z M143.4,71.7c-0.6,0.6-1.5,0.9-2.5,0.9c-1.1,0-2-0.3-2.6-0.9c-0.6-0.6-0.9-1.4-0.9-2.5
			c0-1.1,0.3-1.9,0.9-2.5c0.6-0.6,1.5-0.9,2.6-0.9c1.1,0,1.9,0.3,2.5,0.9c0.6,0.6,0.9,1.4,0.9,2.5C144.3,70.3,144,71.1,143.4,71.7z
			 M155,71.7c-0.6,0.6-1.5,0.9-2.5,0.9c-1.1,0-2-0.3-2.6-0.9c-0.6-0.6-0.9-1.4-0.9-2.5c0-1.1,0.3-1.9,0.9-2.5
			c0.6-0.6,1.5-0.9,2.6-0.9c1.1,0,1.9,0.3,2.6,0.9c0.6,0.6,0.9,1.4,0.9,2.5C155.9,70.3,155.6,71.1,155,71.7z M166.6,71.7
			c-0.6,0.6-1.5,0.9-2.6,0.9c-1.1,0-2-0.3-2.6-0.9c-0.6-0.6-0.9-1.4-0.9-2.5c0-1.1,0.3-1.9,0.9-2.5c0.6-0.6,1.5-0.9,2.6-0.9
			c1.1,0,1.9,0.3,2.6,0.9c0.6,0.6,0.9,1.4,0.9,2.5C167.5,70.3,167.2,71.1,166.6,71.7z"/>
	</g>
	<g>
		<path class="st1" d="M362.8,159.2c-1.1-1-2.6-1.4-4-1.2c-1.9-2.8-5.2-6.7-10.1-10.2c-7.9-5.6-21.7-11.2-43.3-7.2
			c-5.2-8.4-13-17-22.2-24.2h0c-0.5-0.5-1.1-0.9-1.6-1.3c-8.1-6.1-17.2-11-26.5-13.8c-28.8-8.6-47.3-1.6-56.9,6.5
			c-9.6,8.1-23.8,24.1-37.8,38.3c-3,3-4.3,5.5-4.2,7.7v0v0.1c0,0.2,0,0.4,0.1,0.6c0.1,0.8,0.4,1.5,1,2.2c0.2,0.3,0.5,0.7,0.8,0.9
			c0.4,0.5,0.8,0.8,1.4,1.2c0.4,0.3,0.8,0.6,1.3,0.9c1,0.6,2.1,1.1,3.3,1.6c0.6,0.3,1.3,0.5,1.9,0.8c1.5,0.6,3.1,1.1,4.9,1.7
			c0.6,0.2,1.2,0.4,1.8,0.6c6.5,2,14.4,3.9,22.5,6.3c25.5,7.5,42.1,31.1,54.8,44.7c4.9,5.3,9,7.6,12.6,8.1c0.6,0.1,1.1,0.1,1.7,0.1
			c0.3,0,0.6,0,0.9-0.1c4.5-0.3,8.3-3.2,12.4-5.9c7.9-5.1,37.8-34,34.9-59.7c-0.5-4.4-2.3-9.4-5.2-14.6c15.7-2.7,29.4-0.4,39.6,6.8
			c4.4,3.1,7.4,6.6,9.2,9.1c0,0-0.1,0.1-0.1,0.1c-1.8,2-1.6,5.1,0.4,6.9c2,1.8,5.1,1.6,6.9-0.4C365,164.1,364.8,161,362.8,159.2z
			 M280.2,205.4c-3.3,3.5-6.2,5.7-9.1,6.5c-7,1.8-14.7-4.7-31.3-22.4c-22.3-23.9-29.2-19.9-34.3-31.3c-0.3-0.6-0.6-1.2-0.8-1.9
			c-5.1-13.8,15.4-41.4,36.3-39.4c28.2,2.5,54,36.1,58.3,52.1C303.7,184.9,291.4,193.7,280.2,205.4z"/>
		<path class="st1" d="M245.9,142.4l-4.4,0.2l-0.2-4.4c0-1.1-1-2-2.1-2c0,0,0,0-0.1,0c-1.1,0-2.1,1-2,2.2l0.2,4.4l-4.4,0.2
			c-1.1,0-2,1-2,2.1c0,0,0,0,0,0.1c0,1.2,1,2.1,2.2,2l4.4-0.2l0.2,4.4c0,1.2,1,2.1,2.2,2c1.2,0,2.1-1,2-2.2l-0.2-4.4l4.4-0.2
			c1.2,0,2.1-1,2-2.2C248,143.3,247,142.4,245.9,142.4z"/>
		<path class="st1" d="M281,174.7l-4.4,0.2l-0.2-4.4c0-1.1-1-2-2.1-2c0,0,0,0-0.1,0c-1.2,0.1-2.1,1.1-2,2.2l0.2,4.4l-4.4,0.2
			c-1.1,0.1-2,1-2,2.1c0,0,0,0,0,0.1c0,1.2,1,2.1,2.2,2l4.4-0.2l0.2,4.4c0,1.1,1,2.1,2.2,2c1.1-0.1,2.1-1.1,2-2.2l-0.2-4.4l4.4-0.2
			c1.2-0.1,2.1-1.1,2-2.2C283.1,175.5,282.2,174.6,281,174.7z"/>
		<path class="st1" d="M192.4,281.4c0.6,0.4,1.4,0.6,2.1,0.6c0.2,0,0.5,0,0.7,0h0c2-0.4,3.2-2.3,2.9-4.3c-0.4-2-2.3-3.2-4.3-2.9
			c-1.9,0.4-3.2,2.3-2.9,4.2C191.1,280,191.6,280.8,192.4,281.4z M194.3,277.5h0.2c0.5,0,0.8,0.2,0.9,0.7c0.1,0.5-0.2,1-0.7,1.1
			c-0.3,0-0.5,0-0.7-0.1c-0.1-0.1-0.3-0.3-0.4-0.6C193.5,278,193.9,277.6,194.3,277.5z"/>
		<path class="st1" d="M260.6,260h-3.1c-0.6-2.1-1.4-4-2.5-5.8l2.3-2.3c0.3-0.3,0.3-0.7,0-1l-6.8-6.8c-0.3-0.3-0.7-0.3-1,0l-2.4,2.4
			c-1.2-0.7-2.4-1.2-3.7-1.6c1.5-3,2.7-5.4,3.6-7.3c2.7-6.1,3.1-11.4,1.1-16.2c-1.4-3.2-3.9-6.2-7.6-8.8
			c-9.1-6.6-17.8-13.9-36.2-26.7c-6.9-4.8-17.2-8.1-27.4-10.4h0c-2.1-0.5-4.2-0.9-6.3-1.3c-1.1-0.2-2.2-0.4-3.2-0.6
			c-0.8-0.1-1.6-0.3-2.3-0.4c0,0,0,0,0,0c-0.3,0-0.6,0-0.8-0.1c-0.4-0.1-0.8-0.1-1.3-0.2c-1.6-0.3-3.1-0.5-4.7-0.7
			c-0.9-0.1-1.9-0.2-2.8-0.3c-3.8-0.4-7.5,0.1-10.9,1.6l-11.8-9.8c3-1.1,5.8-3,8-5.6c6.7-7.9,5.6-19.8-2.4-26.5
			c-8-6.6-19.8-5.5-26.5,2.4c-3.9,4.7-5.1,10.7-3.9,16.2c-5.6-0.2-11.3,2.1-15.2,6.7c-6.6,8-5.5,19.8,2.4,26.5
			c8,6.7,19.8,5.6,26.5-2.4c2.2-2.7,3.5-5.8,4.1-9l10.2,8.5c-0.3,0.4-0.6,0.8-0.9,1.3c-0.3,0.6-0.7,1.2-1,1.8c-4.2,0.5-8.6,1.5-13,3
			c-12,4.2-21.4,15.3-23.9,28.4c-2.5,12.8,1.9,24.9,12.3,34c0.9,0.8,1.9,1.6,2.9,2.3c-1.8,9.9-3.4,19.7-4.9,29.3
			c-0.5,3.3-0.8,6.4-0.9,9.3h21.8h99.9c0.2-1.2,0.5-2.4,0.8-3.5c0.5,0.2,1,0.3,1.5,0.5v3.3c0,0.4,0.3,0.7,0.7,0.7h9.6
			c0.4,0,0.7-0.3,0.7-0.7v-3.1c2.1-0.5,4.1-1.3,5.9-2.4l2.2,2.2c0.3,0.3,0.7,0.3,1,0l6.8-6.8c0.3-0.3,0.3-0.7,0-1l-2.2-2.2
			c1.1-1.8,1.9-3.8,2.4-5.9h3.1c0.4,0,0.7-0.3,0.7-0.7v-9.6C261.3,260.3,261,260,260.6,260z M113,173.8c-2.7,3.2-7.5,3.7-10.7,1
			c-3.2-2.7-3.7-7.5-1-10.7c2.7-3.2,7.5-3.7,10.7-1C115.3,165.8,115.7,170.6,113,173.8z M121.4,151.9c-3.2-2.7-3.7-7.5-1-10.7
			c2.7-3.2,7.5-3.6,10.7-0.9c3.2,2.7,3.7,7.4,1,10.7C129.4,154.1,124.6,154.6,121.4,151.9z M99.8,215.6
			c2.3-11.9,11.2-22.6,22.1-26.4c3.6-1.3,7.1-2.1,10.5-2.6c2.2-0.3,4.3-0.5,6.4-0.5h1c1.6,0,2.9,0.8,3.8,2.1c0.8,1.1,1,2.6,0.5,3.9
			c-0.7,1.8-2.5,3.1-4.6,2.9c-2.8-0.1-7.2,0-11.9,1.5c-7,2.2-14.7,7.2-18.4,18.8c-2.6,8.1-1.3,15.8,4,22.5c0.4,0.6,0.9,1.1,1.5,1.6
			c4.6,5.1,11.5,9.3,19.7,12.4c10.4,3.8,22.8,5.8,35.1,5.3c0,0.7,0.1,1.4,0.2,2.1c0.3,1.8,0.8,3.5,1.5,4.9
			c-6.7,0.2-22.6-0.1-38.1-5.2c-7.2-2.3-14.3-5.7-20.3-10.6c-0.6-0.4-1.1-0.8-1.6-1.3C101.5,238.6,97.5,227.4,99.8,215.6z
			 M197.5,265.7l2.6,11.6v0c0.4,1.5,0.1,2.9-0.7,4.2c-0.8,1.3-2.1,2.2-3.6,2.4c-1.6,0.3-3.1,0-4.3-0.9c-1.2-0.9-2-2.2-2.2-3.6
			l-1.7-11.1C191.2,267.6,194.6,266.6,197.5,265.7z M199.5,262.1c-0.4,0.2-0.8,0.3-1.3,0.5c-0.4,0.1-0.8,0.3-1.3,0.4
			c-2.8,0.9-6.2,1.9-9.7,2.6c-0.5,0.1-0.9,0.1-1.4,0.2c-0.5,0.1-0.9,0.2-1.4,0.2c-1.9,0.3-3.8,0.6-5.6,0.7c-1,0-1.9-0.2-2.6-0.7
			c-0.7-0.5-1.3-1.1-1.8-1.9v0c-1-1.5-1.6-3.4-1.9-5.3c-0.1-1-0.2-2.1-0.1-3.1c0-0.5,0-1,0.1-1.6c0.4-3.6,2.2-6.9,5.3-7.7
			c1.1-0.3,2.2-0.6,3.5-0.8c0.4-0.1,0.9-0.2,1.4-0.3c0.4-0.1,0.9-0.2,1.4-0.3c3.1-0.7,6.2-1.3,8.5-1.7c0.5-0.1,1-0.2,1.4-0.3
			l0.7-0.1l0.5,3.1l-0.5,0.2l-1.3,0.5l-8.5,3.1l-1.4,0.5l-1.3,0.5l-1.5,0.5v9.8l3-0.6l1.4-0.2l1.4-0.2l9.5-1.8l1.3-0.2l1.4-0.3
			l3.9-0.7l1.1,3.9C202.6,261,201.2,261.5,199.5,262.1z M115.4,236c-4.7-6-5.9-12.6-3.5-19.9c3-9.2,8.6-14,14.4-16.3
			C121.7,211.2,118.2,223.4,115.4,236z M197.8,207.6c0.3,0.7,0.5,1.5,0.7,2.6c1.4,7.1-2.1,14.3-8.5,17.7l-0.9,0.5l2.7,12.1
			c-2.2,0.5-5.3,1.1-8.3,1.8l-2-12.5l-1.1-0.1c-7.3-0.8-13.1-6.2-14.4-13.4c-0.8-4.2,0.1-8.7,2.4-12.3l1.7-0.3l2.2,11.5l11,4.4
			l8.9-8.1l-2-10.4l-0.2-1.1l1.7-0.3c2.4,1.6,4.2,3.8,5.4,6.4C197.4,206.5,197.6,207,197.8,207.6z M185.1,252.4l8.7-3.1l1.4,6
			l-9.4,1.8L185.1,252.4z M230.8,278.7c2.9-11.1,6.2-19.7,9.2-26.4c1.4,0.4,2.8,0.9,4.2,1.7c1.6,0.9,2.9,2.2,3.8,3.8
			C255.2,270.5,243.5,283.5,230.8,278.7z"/>
		<path class="st1" d="M290.8,254.6c0-2.7-2.2-4.9-4.9-4.9c-2.5,0-4.6,1.9-4.8,4.3l9.7,3.1V254.6z"/>
		<polygon class="st1" points="281,262.9 290.8,266 290.8,259.7 281,256.6 		"/>
		<polygon class="st1" points="281,271.5 290.8,274.6 290.8,268.6 281,265.5 		"/>
		<polygon class="st1" points="290.8,277.2 281,274.1 281,279.5 271.5,279.5 271.5,290.1 300.3,290.1 300.3,279.5 290.8,279.5 		"/>
	</g>
</g>
</svg>
