<?xml version="1.0" encoding="utf-8"?>
<!-- Generator: Adobe Illustrator 22.0.0, SVG Export Plug-In . SVG Version: 6.00 Build 0)  -->
<svg version="1.1" id="Layer_1" xmlns="http://www.w3.org/2000/svg" xmlns:xlink="http://www.w3.org/1999/xlink" x="0px" y="0px"
	 viewBox="0 0 400 300" style="enable-background:new 0 0 400 300;" xml:space="preserve">
<style type="text/css">
	.st0{fill:#F99B26;}
	.st1{fill:#BFD5DD;}
</style>
<g>
	<g>
		<path class="st0" d="M262,35.3c-1.1,0-1.9,0.6-2.4,1.8s-0.7,3.2-0.7,5.9c0,2.7,0.2,4.7,0.7,5.9c0.5,1.2,1.3,1.8,2.4,1.8
			c1.1,0,1.9-0.6,2.4-1.8c0.5-1.2,0.7-3.2,0.7-5.9c0-2.7-0.2-4.7-0.7-5.9C263.9,35.9,263.1,35.3,262,35.3z"/>
		<path class="st0" d="M279.8,39.7l-4.1,6.2h5.4v-3.8c0-0.6,0-1.6,0.1-2.8c0.1-1.2,0.1-1.9,0.1-2.1h-0.1
			C280.8,38.1,280.3,38.9,279.8,39.7z"/>
		<path class="st0" d="M244,39.7l-4.1,6.2h5.4v-3.8c0-0.6,0-1.6,0.1-2.8c0.1-1.2,0.1-1.9,0.1-2.1h-0.1C245,38.1,244.5,38.9,244,39.7
			z"/>
		<path class="st0" d="M325.1,13h-104c-8.2,0-14.9,6.7-14.9,14.9v30.9c0,8.2,6.7,14.9,14.9,14.9h14.6c0.8,2.4,1.6,5.3,1.9,8.6
			c1,8.5-1,15.4-2.3,19.1c3.3-2.1,9.8-6.9,14.4-15.5c2.4-4.5,3.6-8.8,4.3-12.2h71c8.2,0,14.9-6.7,14.9-14.9V27.9
			C340,19.7,333.3,13,325.1,13z M252.6,49.6h-2.7v4.6h-4.6v-4.6h-9.6v-3.3l9.8-14.5h4.4v14.1h2.7V49.6z M267.9,51.7
			c-1.3,1.9-3.3,2.8-5.9,2.8c-2.6,0-4.5-1-5.8-2.9c-1.3-1.9-2-4.8-2-8.6c0-4,0.6-6.9,1.9-8.7c1.3-1.9,3.2-2.8,5.9-2.8
			c2.6,0,4.5,1,5.9,2.9c1.3,2,2,4.8,2,8.6C269.9,47,269.2,49.8,267.9,51.7z M288.4,49.6h-2.7v4.6h-4.6v-4.6h-9.6v-3.3l9.8-14.5h4.4
			v14.1h2.7V49.6z M295.3,54c-0.5,0.5-1.1,0.7-2,0.7c-0.9,0-1.5-0.2-2-0.7c-0.5-0.5-0.7-1.1-0.7-1.9c0-0.9,0.2-1.5,0.7-1.9
			c0.5-0.4,1.1-0.7,2-0.7c0.8,0,1.5,0.2,2,0.7c0.5,0.4,0.7,1.1,0.7,1.9C296,52.9,295.8,53.5,295.3,54z M304.3,54
			c-0.5,0.5-1.1,0.7-2,0.7c-0.9,0-1.5-0.2-2-0.7c-0.5-0.5-0.7-1.1-0.7-1.9c0-0.9,0.2-1.5,0.7-1.9c0.5-0.4,1.1-0.7,2-0.7
			c0.8,0,1.5,0.2,2,0.7c0.5,0.4,0.7,1.1,0.7,1.9C305,52.9,304.7,53.5,304.3,54z M313.2,54c-0.5,0.5-1.1,0.7-2,0.7
			c-0.9,0-1.5-0.2-2-0.7c-0.5-0.5-0.7-1.1-0.7-1.9c0-0.9,0.2-1.5,0.7-1.9c0.5-0.4,1.1-0.7,2-0.7c0.8,0,1.5,0.2,2,0.7
			c0.5,0.4,0.7,1.1,0.7,1.9C313.9,52.9,313.7,53.5,313.2,54z"/>
	</g>
	<g>
		<path class="st1" d="M214.4,287.1C214.4,287.1,214.4,287.1,214.4,287.1c-0.3-7.7-1.1-16.4-2.9-25.7c-0.7-3.5-1.4-6.8-2.2-10
			c6.7-1,11.4-7.3,10.5-14.1l-0.3-1.8c32.4-26.9,36.1-75.3,36.1-75.3c-9.8,6.2-19.7,6.5-19.7,6.5c16.5-24.4,7.8-54.8,7.8-54.8
			c-7.3,8.7-18.9,11.3-18.9,11.3c8-19.2-2.6-39.8-2.6-39.8c-7.6,13.2-21.8,19.3-21.8,19.3c-2.4-26.4-31.7-48-31.7-48
			c-5.8,29.3-21.9,43.7-21.9,43.7c-6-11.2-2.8-33.8-2.8-33.8c-16.2,8.3-26.4,34.7-26.4,34.7L108.4,85C87.8,96,85.8,125.9,85.8,125.9
			l-11.4-13.2c-10.8,33,12.5,61.1,12.5,61.1l-20.2-6.4c1.8,25.3,16.9,44,30.4,55.9c0,0.9,0.1,1.8,0.2,2.7c0.1,0.8,0.3,1.6,0.5,2.5
			l0.2,0.6c0.1,0.7,0.3,1.3,0.6,2c1.3,3.9,3.8,7.4,7,9.6c3.1,2.2,6.9,3.5,11,3.6h1c0.9,0,1.8,0,2.6-0.1c1.2,5.7,5.7,10,11.2,11.1
			l3.7,31.7c-6.1,0.8-14.4,2.9-16.1,9.1h24.1l-0.8-41l0,0l56.5-3.1l1.2-0.1c1.2,3.8,2.2,7.9,3.2,12.2c2.5,11.6,3.2,21.9,3.3,30.3
			v1.7h0v0c0.3,0,0.6,0,0.9,0h23.2C228.9,290.2,220.8,288,214.4,287.1z M116.7,242.3c-2.6-0.1-6.4-0.8-10-3.3
			c-2.9-2-5.1-5.1-6.3-8.7c-0.2-0.6-0.4-1.2-0.5-1.8l-0.2-0.6c-0.2-0.8-0.3-1.5-0.5-2.4c0-0.1,0-0.3,0-0.4c-0.2-1.8-0.3-3.3-0.2-4.8
			c0.2-3.4,1.1-6.8,2.7-10c1.5-2.9,3.6-5.6,6.2-8c1.2-1.1,2.5-2.2,3.9-3.2c0.7-0.5,1.4-0.9,2.1-1.4c0.2-0.1,0.4-0.3,0.6-0.4
			c-0.3,0.4-0.5,0.8-0.7,1.2c-0.2,0.4-0.4,0.8-0.5,1.3c-0.1,0.3-0.2,0.7-0.3,1.1c-0.2,1.1-0.2,2.2,0,3.3l0.5,2.6
			c-0.3,0.2-0.5,0.4-0.8,0.6c-2.1,1.9-3.8,3.9-5.1,6c-1.3,2.3-2.1,4.7-2.3,7.3c-0.1,1.2-0.1,2.4,0,4l0.1,0.4c0.1,0.5,0.1,1,0.2,1.6
			l0.1,0.6c0.1,0.5,0.2,1,0.3,1.3c0.3,1,0.7,2,1.2,2.8c0.7,1.2,1.6,2.3,2.7,3.1c1.6,1.2,3.7,2.1,5.9,2.4c0.3,0.1,0.7,0.1,1,0.1
			c0.7,0.1,1.3,0.1,2,0c2.9-0.1,5.7-0.9,8-2.3c0.4,0.5,0.9,1,1.4,1.4c0.8,0.7,1.5,1.3,2.2,1.9c-0.9,0.7-1.9,1.3-2.9,1.8
			c-0.3,0.2-0.7,0.3-1,0.5c-2.2,1-4.5,1.6-6.8,1.8C118.8,242.4,117.8,242.4,116.7,242.3z M104.6,130.9c0.4-0.5,0.9-0.9,1.5-1.4
			c0.4-0.3,0.9-0.6,1.4-0.9c0.4-0.2,0.8-0.4,1.3-0.6c0.4-0.2,0.8-0.4,1.3-0.6c1.2-0.5,2.6-1,4.2-1.4c15.5-4.4,43.5-5.6,50.5-6.2
			c9.1-0.6,19.1-2.2,22,9.3c0,0,6.9,25.9,6.9,34.1c0.1,6.2-1.1,11.9-8.5,14.7c-0.1,0-0.2,0.1-0.2,0.1c-1.5,0.6-3.2,1-5.3,1.3
			c-0.3,0.1-0.7,0.1-1,0.1c-1,0.1-2.1,0.2-3.2,0.3c-16.2,0.9-42.6,3.8-49.5,4.6c-6.9,0.8-13.6-2.8-16.5-14.7
			C106.4,157.9,98,139,104.6,130.9z M128,232.8c-0.2-0.3-0.4-0.5-0.6-0.8c-0.9-1.2-1.6-2.4-2-3.5c-1.2-3,1.6-7.5,4.7-9.2
			c0.6-0.3,1.3-0.7,2-0.7c0.5,0,1,0.2,1.4,0.7c0.4,0.5,0.6,1,0.4,1.5c-0.3,1.7-2.8,3.5-3.7,4c-0.4,0.2-0.7,0.8-0.4,1.2
			c0.2,0.5,0.7,0.7,1.2,0.6c2.7-0.7,4.6-2,5.5-3.8c0.7-1.4,0.7-2.7,0.6-3.5c0.8-0.5,2.3-1.1,3.3,0c1.3,1.5-0.6,3.3-0.8,3.5
			c-0.4,0.3-0.4,0.9-0.1,1.3c0.3,0.4,0.9,0.5,1.3,0.3c0.3-0.2,1.4-0.7,2.4,0.7c1.1,1.4-1.1,3.1-1.1,3.2c-0.4,0.3-0.5,0.9-0.2,1.4
			c0.3,0.4,0.9,0.6,1.3,0.3c0.3-0.2,1.5-0.7,2.3-0.4c0.2,0.1,0.5,0.3,0.8,0.9c0.4,1-0.7,4-3.1,5.8c-2.6,2-5.2,3.5-9.1,1.5
			c-0.3-0.2-0.6-0.3-0.9-0.5h0c-0.3-0.2-0.6-0.4-0.8-0.6c-0.8-0.5-1.5-1.2-2.4-2c-0.4-0.4-0.8-0.8-1.1-1.2
			C128.4,233.3,128.2,233.1,128,232.8z M216.5,216.9c-0.2,0.7-0.5,1.5-0.9,2.2c-0.8,1.6-1.6,3-2.4,4.2h0c-1.8,2.5-4.3,4.6-7.1,6.2
			c-0.1,0.1-0.2,0.1-0.3,0.2c-0.9,0.4-1.8,0.9-2.7,1.3c-1.8,0.7-3.6,1.3-5.6,1.7c-0.5,0.1-1.1,0.2-1.7,0.3h0
			c-0.9,0.1-1.8,0.2-2.7,0.3c-0.8,0-1.5,0.1-2.3,0.1h-0.2c1.1-1.8,1.9-3.8,2.3-5.6c1.1-0.2,2.1-0.4,3.1-0.6c2.6-0.7,4.9-1.6,6.9-2.9
			c0.7-0.4,1.3-0.9,1.9-1.4c3-2.5,5-5.9,5.8-10.1c1-4.7,0-9.4-2.9-13.7c-1.2-1.8-2.7-3.6-4.6-5.4c-0.8-0.7-1.3-1.6-1.4-2.7
			c-0.1-1.1,0.2-2.1,0.9-2.9c1.4-1.6,3.9-1.8,5.6-0.4c0.2,0.2,0.4,0.4,0.6,0.7c1.8,1.8,3.2,3.6,4.5,5.5c0.3,0.5,0.6,0.9,0.9,1.4
			c1.8,3,3,6.3,3.5,9.5c0.5,3.3,0.4,6.8-0.4,9.9c-0.1,0.6-0.3,1.2-0.5,1.8C216.7,216.5,216.6,216.7,216.5,216.9z M188.1,233.2
			c-0.2,0.3-0.4,0.6-0.6,0.9h0c-0.2,0.3-0.4,0.6-0.7,0.9c-3.7,4.7-7.1,4-10.5,2.6c-2.9-1.1-4.7-3.6-4.6-4.7c0.1-0.7,0.3-0.9,0.5-1.1
			c0.4-0.2,0.9-0.3,1.3-0.3c0.4,0,0.8,0,1,0.1c0.5,0.1,1.1-0.2,1.2-0.7c0.2-0.5-0.1-1-0.6-1.2c0,0-2.6-1.1-2-2.7
			c0.6-1.6,1.8-1.5,2.1-1.4c0.5,0.1,1-0.1,1.2-0.6c0.2-0.5,0-1-0.5-1.3c-0.2-0.1-2.5-1.3-1.7-3.1c0.6-1.4,2.3-1.1,3.1-0.9
			c0.1,0.8,0.5,2.1,1.5,3.2c1.4,1.4,3.5,2.2,6.2,2.2c0.6,0,1-0.4,1.1-0.9c0.1-0.5-0.3-1-0.8-1.1c-1-0.3-3.9-1.3-4.7-2.9
			c-0.2-0.5-0.3-1,0-1.6c0.5-1.3,2-1.2,3.2-0.9c3.5,0.9,7.4,4.5,7.1,7.6c0,0.2,0,0.4-0.1,0.7c-0.1,0.3-0.1,0.7-0.2,1
			c-0.1,0.3-0.2,0.7-0.3,1.1c-0.4,1.4-1.1,3-1.9,4.4C188.5,232.7,188.3,232.9,188.1,233.2z M202.2,125.7c0,0,4.2,14.9,8.5,36.8
			c4.3,21.9-16,21.8-16,21.8s-0.7,0.1-2.1,0.2c-0.3,0-0.6,0.1-1,0.1c-0.3,0-0.6,0-0.9,0.1c-0.6,0.1-1.3,0.1-2,0.2
			c-1.6,0.2-3.5,0.4-5.6,0.7c0-0.2-0.1-0.4-0.1-0.6c0.4,0,0.6-0.1,0.6-0.1s20.3,0.1,16-21.8c-4.4-21.9-8.5-36.8-8.5-36.8
			s-3-13.9-18.1-15.7c-0.2,0-0.4,0-0.6-0.1c0.2,0,0.4,0,0.6-0.1c1.5-0.2,2.9-0.3,4.2-0.5C198.5,107.7,202.2,125.7,202.2,125.7z"/>
		<path class="st1" d="M160.6,148.2c1.8,1.1,5.3,2.4,9.1-0.6c3.9-2.9,3.9-7,3.6-9.2c-0.1-0.8-1.1-1.2-1.8-0.7l-11.1,8.7
			C159.9,146.9,160,147.8,160.6,148.2z"/>
		<path class="st1" d="M128,155.7c5.6,1.7,9.7-1.1,11.5-2.6c0.4-0.4,0.3-1.1-0.3-1.3c-3.4-0.9-12.8-3.5-16-4.4
			c-0.6-0.1-1,0.3-0.9,0.9C122.6,150.3,123.9,154.4,128,155.7z"/>
		<path class="st1" d="M144.9,165.5c0.2,0.1,0.3,0.1,0.5,0.1c0.6,0,1.2-0.4,1.4-1c0.8-2.2,3.1-3.9,5.9-4.3c2.6-0.4,5.2,0.4,6.7,2.1
			c0.5,0.6,1.5,0.7,2.1,0.1c0.6-0.6,0.7-1.5,0.1-2.1c-2.2-2.4-5.7-3.6-9.4-3.1c-3.8,0.6-7.1,3-8.3,6.2
			C143.7,164.4,144.1,165.3,144.9,165.5z"/>
	</g>
</g>
</svg>
